<svg xmlns="http://www.w3.org/2000/svg" viewBox="0 0 282.09 282.6"><defs><style>.cls-1{fill:#439c43;}</style></defs><g id="Layer_2" data-name="Layer 2"><g id="baby_blocks_alphabet_abc_Image" data-name="baby_blocks_alphabet_abc Image"><path class="cls-1" d="M.23,141.55c0-41.49-.06-83,0-124.47C.3,5,5.27.09,17.38.07Q85.87,0,154.36,0q55.48,0,111,.1c12.21,0,16.73,4.51,16.73,16.54q.06,124,0,248c0,12.06-5.29,17.19-17.36,17.29-28.64.24-57.27.7-85.91.71-33.8,0-67.61-.37-101.41-.5-21.48-.08-43,0-64.44,0C7.27,282.07.3,275.12.25,269Q0,237.79,0,206.54q-.06-32.49,0-65ZM47.57,43.83c-7-.22-7.72,4.58-8.07,9.56-.13,1.81-.06,3.63-.06,5.44q-.09,52.26-.17,104.52c0,21.08-.07,42.15,0,63.22.06,11,4,17.37,16.54,16.35,3-.25,6-.07,9-.07q82.7,0,165.4-.1c5.18,0,10.28-3.76,11.28-8.42a44.41,44.41,0,0,0,1-9.19c.09-20.77.07-41.53.06-62.3,0-34.66.09-69.33-.29-104,0-3.58,2.88-9.27-3.79-11-.15,0-.29-.36-.33-.57-.54-2.74-.54-2.73-2.63-3-1.47-.16-2.94-.37-4.75-.6l4-1.67a56.84,56.84,0,0,0-14.53-1.88q-78-.12-155.9,0c-5.82,0-11.63.63-17.44,1a6.45,6.45,0,0,0-1.59.62Z"/><path class="cls-1" d="M103.1,215.5c5.62.88,10.5,2.3,15.37,2.3,15.31,0,30.62-.38,45.93-.83,7.37-.22,13.27-3.38,18.57-8.77,6.28-6.4,13.54-11.84,20.31-17.78,1.51-1.32,2.63-3.09,4.07-4.5,5.34-5.23,5.36-5.21,12.44-1.49-1.78,4.48-3.54,9.06-5.42,13.57-4.09,9.82-8.24,19.61-12.36,29.41-1.61,3.82-3.86,6.06-8.62,5.65-10.94-.94-22-.58-32.85-2.13-22.56-3.22-45.15-1.25-67.71-1.31-7.38,0-14.77,1.49-22.16,2.24a4.68,4.68,0,0,1-3.21-.81H74.8l0-.89c-5.79-.3-11.57-.64-17.35-.9s-7.63-2.79-4.78-7.67c5.31-9,11.14-17.78,17-26.5,4.21-6.3,8.77-12.38,13.2-18.54q12-16.63,23.94-33.26c4.36-6,8.74-12.08,13.07-18.14q9.27-12.95,18.46-25.94c4.34-6.16,7.88-13.1,13.11-18.35,3.37-3.38,2.73-8.16,6.28-11.37l-2.81-2,3.92-1.17c-.24-.54-.29-1-.49-1.06-12.5-6.07-25.68-2.74-38.63-2.89-15-.18-22.93,10.6-31.8,19.9-5.61,5.88-10.75,12.2-16.28,18.16-2.31,2.48-5.25,2-7.71.1-2-1.49-2.86-3-1.59-6.15,2.72-6.84,4-14.24,6.38-21.23,1.72-5,4.3-9.78,6.47-14.67a6.77,6.77,0,0,0,.7-2.31c.21-5.55,4-6.12,8.28-6.07,26.81.31,53.62.72,80.43.91,14.66.1,29.33-.24,44-.29,6.41,0,7.81,2.17,4.23,7.59-8.29,12.55-16.94,24.86-25.55,37.19-6,8.61-12.17,17.11-18.32,25.63-9.11,12.61-18.33,25.14-27.39,37.79-4.57,6.39-8.81,13-13.33,19.45-7.33,10.39-14.79,20.67-22.12,31.05C105.18,210.72,104.65,212.33,103.1,215.5Z"/></g></g></svg>