<svg xmlns="http://www.w3.org/2000/svg" viewBox="0 0 282.86 282.64"><defs><style>.cls-1{fill:#d3c016;}</style></defs><g id="Layer_2" data-name="Layer 2"><g id="baby_blocks_alphabet_abc_Image" data-name="baby_blocks_alphabet_abc Image"><path class="cls-1" d="M.62,141q0-64.23,0-128.44c0-6.25,6-12,13.14-12.43,4.15-.24,8.33,0,12.49,0l239.4,0c12.4,0,17.16,4.63,17.16,17.24q0,109.7-.18,219.39c0,9.33.28,18.66.21,28-.09,13-5,17.83-17.85,17.84q-119.46.06-238.9,0c-6.35,0-12.95-.45-19-2.24-4.42-1.3-7.09-5.86-7.09-11Q0,205.18,0,141Zm243-78.82c.72-2.16-4.79-.3-2.13-4.11,1.12-1.61-.78-6.47-2.69-8.65a6.55,6.55,0,0,1-2-4.11c-.18-3-2-3.88-4.63-4.05-4.31-.28-8.62-.82-12.93-.83q-74.71-.09-149.42,0c-6.5,0-13,0-19.48.38-5.23.28-10,5.08-10.43,10.19-.4,4.6-.86,9.23-.84,13.84q.23,82.13.61,164.25c0,7.22,3.93,12.14,11.08,13.4a80,80,0,0,0,13.74,1.12c52.81.15,105.62.31,158.42.09,4.77,0,9.79-2.11,14.19-4.26,2.34-1.15,2.4-6,3.57-7.35,2.89-3.29,2.12-7.23,2.32-10,.26-3.73-.71-7.68.39-11.65.42-1.51-.32-3.34-.51-5a42.08,42.08,0,0,1-.59-6.2c.17-4.52.7-9,.9-13.55.06-1.29,0-9.92-.05-10.85-.24-2.37-.76-4.72-1.17-7.08l.44.07v-8.59c-.38.21.44-.24.28-.16,0-2.53.07-4.18,0-5.82s-.37-3.4-.56-5.1l.17-.11v-8.77l.5-.28c-.53-6.77-2.36-13.11-1.12-18.78,1.32-6-.68-12.16,1.43-18.61-.12-.09-1.53-.68-1.51-1.22.11-3.06.67-6.11.87-9.17.16-2.48,0-5,0-8.09-.33.19.46-.27.11-.07,0-3.94.73-7.12-.19-9.73-1.06-3-.32-5.28.94-7.77l-2.19-1.65Z"/><path class="cls-1" d="M79.55,213.9,76.34,212c.91-.58,2.47-1.08,2.51-1.7.25-3.31.12-6.66.12-10.63,1.39-.8,2.94-2.26-.2-3.16l.61-3.64-1.47-.26c1.06-1.47,5.35-3-.59-4.25,2.75-1.41,4.82-2.75.32-4,2-1.46,5.5-2.93,1.42-3.68v-5.33l1.71-.89-1.9-1.6c.24-1.9.39-3.1.55-4.3.27-1.58,2.89-3-1.76-4.27,1.88-1.41,5.49-2.83-.56-4,3.64-1.49,4.77-2.86.35-4.15,2.62-1.23,4.75-2.36.49-3.75,1.35-1.41,4.64-2.85-.22-4.06,1.75-1.37,4.83-2.68,0-4,2.16-1.42,4.69-2.85-.07-4.09,1.91-1.23,5.15-2.27,1.52-3.45V128.2l-.38.16c.25-1.25.5-2.5.76-3.75.69-1.74,2.62-3.19-.39-4v-5.23c2-.72,2.11-2-1.26-3.2,3.9-3,2.81-25.45-1.26-28.42l2.57-1.32-3-2.55,2.65-2-4.17-2.09L78,74.51c0-.37.09-.74.14-1.11l-8-1.7,6.59-1c.09-.36.17-.73.26-1.1l-5.83-1.86,2.47-.66.12-.75c-2.79-.32-5.57-.78-8.37-.93-5-.25-6-1.75-5.88-8,.08-4.67,2.42-6.16,6.66-5.66,26.15,3,52.41,2.3,78.63,2.12,15.72-.11,31.43-1.13,47.15-1.53,5.68-.14,7.43,2,8.55,7.46,1.63,7.88,3.93,15.61,5.64,23.48,1,4.83,3.93,9.54,1.11,14.79-1.74,3.22-4.28,2.78-6.72,1.73-3.15-1.36-6.09-3.21-8.27-4.39l3.08-.81c-2.87-2.15-5.46-4.19-8.14-6.09s-5.24-3.5-8-5.31l.17-.12c-1.91-2-3.59-4.5-5.89-6.09a38.68,38.68,0,0,0-11.91-5.42l3.5-.86c0-.55.09-1.09.13-1.64L151,67.75l4.81-.51c-11.19-4.25-22.67-2.15-34-2.53a499.27,499.27,0,0,0-2.06,52c.1,4.28.3,8.58.82,12.82.14,1.07,1.72,2,2.63,2.94.18.2.34.43.51.64l-1.94.62h13.07l-2.06-.44-.11-.68c2-.13,4-.36,6.06-.37,5.25,0,9.93-1.79,12.89-6a67.78,67.78,0,0,0,8.25-14.79c2-5.41,5.94-2.9,9.12-3.25,3.33-.37,2.91,2.4,3,4.51.41,16,.95,31.94,1.13,47.92.09,8.31-.38,8.19-9.07,7.87-.93,0-2.09-1.2-2.68-2.14-1.81-2.82-3.08-6.05-5.19-8.59-1.06-1.28-3.51-1.42-5.28-2.05l2.88-.74c.05-.32.11-.64.16-1l-4.7-1.51.78-.54c-.56-.82-.94-2.06-1.71-2.39-2.93-1.27-5.93-2.92-9-3.2-5.63-.51-11.34-.14-18.48-.14l2,.88c-1,3.3-2.77,6.42-2.8,9.55-.09,10.25.36,20.51.77,30.76.29,7.22.54,14.47,1.4,21.63.81,6.71,6,10.87,12.69,10.95,7.5.09,15.1-.74,22.47.23,8.35,1.1,15.38-2.46,22-5.66,5.47-2.63,9.33-8.59,13.93-13.06,5.87-5.69,11.67-11.46,17.74-16.92.81-.72,3.8-.4,4.54.49,1.56,1.85,3.46,4.58,3.14,6.61-.87,5.54-2.81,10.92-4.37,16.34-1.66,5.81-3.84,11.51-4.89,17.41a8.13,8.13,0,0,1-7.12,6.79c-12.57.74-25.2.52-37.8.47-10,0-20-.45-29.95-.44-13,0-26,.33-39,.42-10,.07-19.92,0-29.88,0-4.8,0-6.34-1.95-6.66-6.8-.3-4.69,1.76-5.91,6.16-6,3.59,0,8.15,1.25,10.06-4C75.58,214.89,77.82,214.63,79.55,213.9Zm98.9,17.42v-.56H119v.56Z"/></g></g></svg>