<svg xmlns="http://www.w3.org/2000/svg" viewBox="0 0 282.82 282.48"><defs><style>.cls-1{fill:#d01c10;}</style></defs><g id="Layer_2" data-name="Layer 2"><g id="baby_blocks_alphabet_abc_Image" data-name="baby_blocks_alphabet_abc Image"><path class="cls-1" d="M142.14,0q61.23,0,122.46,0c3.47,0,7.24-.26,10.34,1,5.5,2.16,7.5,7.2,7.67,12.89.16,5.33.2,10.66.2,16q0,117,0,233.93c0,5.58-.16,11.45-5.54,14.62a27.29,27.29,0,0,1-11.58,3.63c-8.43.6-16.92.35-25.39.37-15.8,0-31.6,0-47.4,0H73c-17.79,0-35.58.06-53.37-.14-3.77,0-8-.21-11.16-2a16.89,16.89,0,0,1-6.9-8.43C.16,268,.08,263.41.07,259.12Q0,146.91,0,34.69c0-7.66.52-15.31,1-23C1.32,5.93,6.47.6,12.19.31c6-.3,12-.29,18-.3q56,0,112,0Zm28.91,198.29-16.69-19.38c.1-.18.47-.81.11-.2l-7.65-9,.81-.66-6.38-1.41,2.93-1.39-14-14.94,1.91-2-4.7-.82-6.89-10.65,1-.7-5.5-1.3,1.82-1.94L101.48,115,97,111l1.28-1.86c-2.2-.46-5.35-.5-5.53-1.24-1.56-6.69-5.92-2.27-8.89-3.22-.26,3.65-.72,6.64-.65,9.62.63,26.9,1.18,53.79,2.21,80.68.2,5.43,2.15,10.84,3.61,16.17.37,1.36,2,2.33,3,3.56,3.46,4.37,8.3,4.09,13.08,3.86,2.78-.13,3.78,1,4,3.77.44,6.71-.62,7.7-6.51,7.14-5.62-.53-11.31-.28-17-.31a29.33,29.33,0,0,0-4.07.69l12.91,1.93c0,.16-.06.32-.08.48H58.69l2-1.67c-.12-.27-.23-.55-.34-.83L49.1,231.32V218.68L60,218.07a17.4,17.4,0,0,1-.59-2.73c6.45-2.5,5.8-9.35,7.27-14,2.13-6.76,1.45-14.44,1.68-21.74.17-5.43-.48-10.9-.12-16.31.47-7.16,2.14-14.27,2.3-21.43.32-14.67.18-29.35-.22-44-.14-5.29-.44-11-5.23-14.67l2-1.12L58.86,70.67l1.06-.4c-2.68-2.07-5.16-4.85-8.27-6.21-7.85-3.43-12.07-.52-12.07,8.21q.06,78.78.37,157.55c0,7.33,5.78,12.68,13.45,12.69q88,.08,176-.14c3.24,0,6.79-2.14,9.55-4.16,1.27-.94.94-4,1.46-6.09.12-.53.93-.9,1-1.42.41-2.41.67-4.84,1.09-8.11l1.68-1.11-1.67-.81v-15l1.42-.23-3-1.69,3.14-2c-.72-.56-1.8-1-1.82-1.47-.16-4.44-.92-9.07,0-13.29,1.32-5.83-.29-11.61.88-17.55a29.67,29.67,0,0,0-.36-11.8c-.59-2.27.86-3,.71-4.49-.37-3.46-1.06-6.91-1.15-10.37-.11-4.62.38-9.26.3-13.88s-.73-9.24-.8-13.87c-.08-5,.13-10,.4-15a70.54,70.54,0,0,1,1.1-7.11l-1-.63V72.67l-.71-.46V61.12c-5.12,1.28-10.22,2.52-15.29,3.89-.46.12-.88,1-1,1.57-1.38,5-3.24,10-3.9,15.19-.91,7.22-1,14.56-1.31,21.86-1.26,30.32-2.58,60.64-3.65,91-.37,10.44.17,20.9-.23,31.33-.25,6.51-5.91,9-11.16,5.59-5.09-3.36-10.85-5.73-14.66-10.89-1.38-1.88-4.51-3.06-4.89-5-.75-3.66-4.23-4.36-5.85-7-1.35-2.16-3.72-3.68-5.79-5.62l1.47-2-6.68-1.47ZM40.5,53.51c2-1.15,3.75-3,5.5-3,16.81,0,33.62,0,50.42.61a13.21,13.21,0,0,1,8.57,4.2c11.21,13.09,22,26.52,32.92,39.86q17.75,21.73,35.4,43.52c6.81,8.41,13.59,16.84,20.17,25.43,3,3.92,6.2,2.36,9.46,2.05.07-.43.13-.87.2-1.3l-5.59-.93.1-.71,6.18-.86c-.23-5.23-.61-10.14-.62-15,0-3.29,1.94-8,.43-9.55-2.35-2.46.38-3.24.06-4.65-.45-2.06-1.54-4.06-1.58-6.11-.08-3.34.74-6.7.67-10-.12-6.18-.5-12.37-1-18.54-.26-3.45-1-6.85-1.33-10.3-.28-3.13-.27-6.15-1.8-9.19-.85-1.68-2.11-6-4.11-6.94a12.1,12.1,0,0,0-1.7-.49l5.06-2.11-9.64-1.79L192.05,66c-2.78-1.24-5.52-1.43-8.23-1.85-5-.76-5.59-4.46-5.33-8.52s2.54-5.35,6.39-5c6.26.62,12.53,1.3,18.8,1.43,4.61.09,9.22-.77,13.83-1,4.16-.22,8.33-.21,12.49-.24,3.16,0,7.22-2.22,8.31,3.24a7.09,7.09,0,0,0,1.65,0c-.28-1.72-.52-3.25-.85-5.27l-4.38-1.6L237.06,46c0-.44,0-.89-.05-1.34L219.41,43v-.6h14.25c-20.58-4.28-41.32-2.2-62-2.6-20.81-.4-41.64-.3-62.45,0s-41.41-1.19-62.78,1.41l3.06,2.32C42.33,44.41,41,45.94,40.5,53.51Z"/></g></g></svg>