<svg xmlns="http://www.w3.org/2000/svg" viewBox="0 0 284.07 282.67"><defs><style>.cls-1{fill:#d01c10;}</style></defs><g id="Layer_2" data-name="Layer 2"><g id="baby_blocks_alphabet_abc_Image" data-name="baby_blocks_alphabet_abc Image"><path class="cls-1" d="M284.05,141.5q0,62,0,124c0,12.05-4.61,16.9-16.55,16.92-83.8.08-167.6-.06-251.4.3-9.26,0-14.72-9-15.83-16.05-.49-3.1-.14-6.32-.14-9.49q0-111.21.1-222.41A168.53,168.53,0,0,1,2.47,10C3.32,4.32,9.3,0,15,0Q141.25,0,267.45.08a26.61,26.61,0,0,1,9.85,1.83c6,2.46,6.79,7.74,6.77,13.63-.12,42-.06,84-.06,126Zm-237.29-.13c1.19-2.53,2.38-5.06,3.62-7.68l-2.22-1.84,4.44-2.17L48,127.86l4.25-1.48c0-.37-.08-.73-.11-1.1L47.8,124l5.24-1.4c.7-6.29,4-11.36,5.93-16.86a69.8,69.8,0,0,1,10.46-19c4.89-6.42,11.42-11.61,17.28-17.29A62.27,62.27,0,0,1,124.5,52.19c14.46-1.38,29.3-2.75,43.82,1.66,9.25,2.8,18.79,4.66,28.54,7a9.49,9.49,0,0,0,1.67-3.08c1.05-5.4,5.26-3.61,8.41-3.71,3.88-.12,3.06,3.33,3.34,5.55,1.16,9.5,2.16,19,3.17,28.55q1.25,11.58,2.38,23.18c.25,2.58.23,5.07-3.13,5.76-1.75.36-4.19,1.77-5.08,1.09-2.46-1.9-4.26-4.64-6.17-6.87l2.43-1.29-9-10.75,2-.36c-2.56-1.4-6.1-2.41-6.13-3.52-.17-6.21-4.26-7.06-8.64-7.23-.21-2.49-.39-4.57-.56-6.63l-8.06-1.83,4.06-1.54L177.25,77l-4.87.4c2.75-7.87-7.52-2.23-7.19-7.43L153,67.69l1.74-1.54c-8.92-2.54-13.86-1.33-23.61,1.54-5.6,1.65-11.57,1.86-15.86,6.4-1.66,1.76-2.32,5.18-4.19,5.89-7.13,2.74-8.76,9.44-11,15.13a106.68,106.68,0,0,0-6.58,24.53,101.76,101.76,0,0,0-.13,25.09A129.62,129.62,0,0,0,99.15,170a89.49,89.49,0,0,0,9.3,19.77A49.71,49.71,0,0,0,120.09,202c7.63,5.88,15.5,11.91,25.75,12.27,8.53.31,17.09.06,26.26.06-.51-1.35-.75-2-.69-1.86,4.37-1.51,8.69-3.12,13.08-4.5,10.45-3.3,18.63-9.89,25.5-18.06,2.37-2.83,4.69-2.34,6.8-1.16,2.76,1.55,4.61,4.51,1.93,7.39-5.84,6.29-9.16,14.69-17,19.37-3.94,2.35-6.54,7.39-10.62,9-7.07,2.74-12.9,8.67-21.13,8.51-.89,0-2.49.67-2.59,1.24-.76,4.35-4.26,2.84-6.53,2.86-15.47.14-30.94.15-46.41-.18-2.66-.06-5.28-1.94-7.92-3l.45-1.28H98.74c0-.41,0-.81,0-1.22l5.06-.51a81.67,81.67,0,0,0-10.16-2.56c-.91-.21-1.65-1.12-2.48-1.69-3.62-2.54-7.25-5.06-11.17-7.8l1.27-1.77-8.36-1.3,4.73-.78L66.4,203.35l2.13-.85L61,199.63l3.89-1.53c-5.31-2-6.94-5.55-5.43-7.13-.81-2.65-1.11-4.15-1.72-5.53-1.54-3.48-3.22-6.9-4.85-10.35l.48-.23c-1-4.21-1.84-7.88-2.76-11.84l1.34-1.61L48.06,160l3-1.94-.26-.9H40.75l-.14,1.23,3.7,1.51-4.64,2.3,2.86,1.76c-3.11,3-1.66,7.26-1.72,10.54-.35,17.73.08,35.47.55,53.2.28,10.74,6.16,16.14,16.84,16.05,11.33-.1,22.66-.43,34-.53,25.32-.22,50.64-.5,75.95-.5,19.49,0,39,.64,58.46.39,4.6-.06,9.38-2.13,13.62-4.19,1.43-.7,1.47-4.24,2.14-6.49a31.51,31.51,0,0,1,.53-4.11c.37-2,1.1-4.1,1.08-6.15-.09-7.14-.39-14.27-.68-21.41-.18-4.36-1.32-8.87-.52-13,1-5.29.66-10.27,0-15.45-.23-1.82,1-3.77,1.09-5.68a77.6,77.6,0,0,0-.22-9.4c-.23-3.21-1.54-6.56-.93-9.55a27.14,27.14,0,0,0,0-11.49,16.68,16.68,0,0,1,.24-4.86c.35-3.29,1.14-6.59,1.05-9.86-.12-4.62-1.16-9.23-1.25-13.85-.07-3.44,1.07-6.89,1.09-10.34,0-3.27-1-6.55-1.05-9.83,0-3.43.81-6.85,1-10.3a96.84,96.84,0,0,0,0-10.64,59.86,59.86,0,0,0-1.25-7.13l2.29-1.55L242,55.73l2.12-2-5.88-6.47c.14-.13.72-.66,1.31-1.18l-6.58-2.69,1.74-.63a24.83,24.83,0,0,0-10.23-2.22c-24.16-.08-48.32,0-72.48,0q-47.74-.06-95.49-.21c-7.32,0-6.4.76-12.2,7.41-4.35,5-3.46,10.26-3.61,15.06-.62,19.8-.21,39.62,0,59.43,0,2,1,3.88,1.71,6.37l-2.18,1.73,3.78,1.36-4,2.76,4.31,1.26-3.62,2.37L47,141.39,41.12,141c0,.55,0,1.1,0,1.65h8.29v-1.31Zm3.11,7-8,.66c-.27,2.84-.41,4.29-.58,6h8.56ZM41,145.16l0,1.4h8.53c0-.46,0-.93,0-1.4Z"/></g></g></svg>