<svg xmlns="http://www.w3.org/2000/svg" viewBox="0 0 283.39 282.8"><defs><style>.cls-1{fill:#0f5f9c;}</style></defs><g id="Layer_2" data-name="Layer 2"><g id="baby_blocks_alphabet_abc_Image" data-name="baby_blocks_alphabet_abc Image"><path class="cls-1" d="M141.94,0c41.49,0,83-.06,124.48.11a27.56,27.56,0,0,1,10.85,2.45c3.59,1.61,5.61,4.91,5.6,9.2,0,3.15.52,6.31.52,9.46q0,118.23-.05,236.47c0,4.65-.33,9.29-.56,13.93-.34,6.87-7,10.39-12.86,10.75-4.65.3-9.32.27-14,.27q-118.73,0-237.47.15C7.78,282.82,2.75,278.57.54,269c-1.17-5.1-.07-9.59-.08-14.31q-.18-112.49,0-225A133.11,133.11,0,0,1,2.15,9.89C3.09,3.78,7.71.28,14,.27q64,0,128,0ZM235.6,43.22l.09-.89A11.47,11.47,0,0,0,233,41.6c-16.45-.33-32.9-.81-49.35-.85-12.73,0-25.46.72-38.19.74-9.63,0-19.27-.8-28.9-.84-22.29-.09-44.59.05-66.88.18a5.05,5.05,0,0,0-3.1,1.2c-4.5,4-7,8.68-7,15.17.19,57.49.1,115,.08,172.45,0,6.51,4.79,12.77,11.71,13,15.28.44,30.57.91,45.86,1q37.89.18,75.79-.16,29-.21,57.91-1c2.7-.08,6.08-1.22,7.86-3.09a19.75,19.75,0,0,0,4.71-9.28c.69-3.47-.26-7.25-.33-10.9-.08-4.53.12-9.07,0-13.61s-1.28-9.34-.55-13.78c.83-5.08,0-9.92-.08-14.86-.09-4.48.07-9,.14-13.44.06-3.42.18-6.85.24-10.28.11-6,.23-12.09.29-18.14,0-3.25.06-6.51-.09-9.75-.2-4.54-.83-9.07-.78-13.6.07-6.08.85-12.16.86-18.24,0-4.51-1.71-9.21-.88-13.49,1.31-6.77-.11-13.25-.21-19.85,0-2.24,0-4.47,0-7.24l-3.26-1,3.16-1.58-.21-1.18-6.5-1.3,4.78-.89.09-1.76-16.41-1.46Z"/><path class="cls-1" d="M100.9,231.74l10.78-.59c-7.34-3.83-14.67-1.72-21.67-1.51-3.12.09-4.6.62-4.9-3-.07-.86-1.68-1.59-2.58-2.38,2.88-2.86,2.69-6,.21-7.6,2.66-13.92,3-27.9,7.29-41.24a.77.77,0,0,1,.27-.09c8.38-1.36,10.93,2.89,11.36,10.61a27.92,27.92,0,0,0,4.06,12.55c4.54,7.36,9.6,14.52,17,19.38,1.29.85,3.36.43,4.78,1.16a27.89,27.89,0,0,0,24.67.69,31.63,31.63,0,0,0,14.61-13.56c.61-1.05.48-2.52.85-4.79l-1.51-1.15,3.39-1.55-2.93-2.41,2.8-1.95-2.52-1.66c2.62-5.73-3.16-9.6-3.38-15l-5.83-.86c0-.35,0-.69-.07-1l6.69-.92-15.73-7.11,2.34-2L128,159c-.1.23-.21.45-.31.68l8.69-.65-15.87-3.2,4-.5c.06-.26.11-.52.16-.78l-10-2.52,3.06-1.36-12.39-2.5v-.6h5.74c.07-.39.13-.79.19-1.18l-8.49-1.95.1-.8,3.51-.19-11.81-7.41.91-.9c-.89-.81-1.64-2-2.68-2.38-3.62-1.28-4.55-3.5-2.55-7.14l-3.23-1.18c0-.31,0-.59,0-.86.05-1.92.45-3.91.07-5.73a11.54,11.54,0,0,0-3-5.53c.15-2.78,1-5.73.31-8.31-1.66-6.49,1.65-11.86,2.82-17.76,1.41-7.15,5.43-12.53,9.61-17.77,2.71-3.39,6.8-5.78,10.5-8.27,14.63-9.85,30.74-11.94,47.8-8.83,6.43,1.17,12.85,2.54,19.34,3.32,1.84.23,3.91-1.27,5.86-2,2.33-.85,4.73-2.48,7-2.27,1.18.11,2.66,3.3,3,5.26,1.49,9.3,3,18.63,3.74,28,.45,5.36-.39,10.83-.65,16.14a11.14,11.14,0,0,1-1.07.57c-7.1,2.67-11.22.11-13.27-7.07-1-3.62-3.22-6.6-7.93-5.89l4.19-.3.33-1-7.36-2.27,3.64-1c0-.34.09-.68.13-1l-5.71-1.92,4.35-1.3L158,70.92l-.73.7,4.18-.65c.09-.44.18-.88.28-1.32l-12-1.77c0-.14,0-.28,0-.42h4.85c-8.76-2.67-17.35-3.74-25.65,1.4-6.93,4.3-12.44,17.87-10.2,25.69.72,2.49.75,5.3,1.94,7.51,3.45,6.4,9.32,10.25,15.79,13,12.14,5.18,24.93,9.1,36.48,15.33,16.67,9,29.17,21.77,28.94,42.68-.06,5.15.25,10.33-.19,15.45-1.11,13.05-5.85,24.56-15.89,33.33-4.17,3.65-8.87,6.69-12.72,9.56l1.1.3-12.2,3.14,5.11,1c-16.46,1.52-32.91,2.29-49.35,1,0-.43,0-.87,0-1.3h18.59Z"/></g></g></svg>