<?xml version="1.0" encoding="utf-8"?>
<!-- Generator: Adobe Illustrator 25.2.3, SVG Export Plug-In . SVG Version: 6.00 Build 0)  -->
<svg version="1.1" id="baby_x5F_blocks_x5F_alphabet_x5F_abc_xA0_Image_1_"
	 xmlns="http://www.w3.org/2000/svg" xmlns:xlink="http://www.w3.org/1999/xlink" x="0px" y="0px" viewBox="0 0 1876 1038"
	 style="enable-background:new 0 0 1876 1038;" xml:space="preserve">
<style type="text/css">
	.st0{fill:#FFFFFF;}
	.st1{fill:none;}
	.st2{fill:#D01C10;}
	.st3{fill:#0F5F9C;}
	.st4{fill:#439C43;}
	.st5{fill:#D3C016;}
</style>
<path class="st2" d="M316.91,169.19c0,41.32,0.01,82.64-0.01,123.95c-0.01,12.05-4.61,16.91-16.55,16.92
	c-83.8,0.08-167.6-0.06-251.4,0.3c-9.26,0.04-14.72-8.99-15.83-16.05c-0.49-3.09-0.14-6.32-0.14-9.48
	c0-74.14-0.07-148.28,0.09-222.42c0.02-8.25,1.03-16.55,2.26-24.73c0.85-5.67,6.82-9.98,12.57-9.98
	c84.13-0.02,168.27-0.03,252.4,0.07c3.3,0,6.83,0.58,9.86,1.83c5.96,2.46,6.79,7.74,6.77,13.63c-0.12,41.98-0.06,83.97-0.06,125.95
	C316.88,169.19,316.9,169.19,316.91,169.19z M79.62,169.06c1.19-2.53,2.38-5.06,3.62-7.69c-0.5-0.41-1.3-1.08-2.21-1.84
	c1.45-0.71,2.53-1.24,4.43-2.17c-2-0.79-3.12-1.23-4.62-1.82c1.82-0.63,3.03-1.06,4.25-1.48c-0.04-0.37-0.07-0.73-0.11-1.1
	c-1.17-0.36-2.33-0.71-4.31-1.32c2.28-0.61,3.81-1.02,5.24-1.4c0.7-6.3,3.98-11.37,5.92-16.87c2.5-7.08,6.16-13.35,10.47-19
	c4.89-6.43,11.42-11.62,17.28-17.3c10.55-10.21,23.77-15.86,37.79-17.21c14.46-1.39,29.3-2.75,43.82,1.65
	c9.25,2.81,18.79,4.66,28.53,7.03c0.28-0.5,1.41-1.71,1.67-3.09c1.05-5.39,5.26-3.61,8.41-3.71c3.88-0.12,3.06,3.33,3.34,5.55
	c1.17,9.5,2.16,19.03,3.18,28.55c0.82,7.72,1.62,15.45,2.37,23.18c0.25,2.58,0.23,5.07-3.13,5.76c-1.75,0.36-4.2,1.77-5.08,1.08
	c-2.46-1.9-4.26-4.64-6.17-6.86c0.27-0.14,1.2-0.64,2.43-1.29c-3.31-3.96-6.31-7.56-8.98-10.75c-0.26,0.05,0.52-0.09,2.01-0.36
	c-2.55-1.41-6.09-2.42-6.12-3.53c-0.17-6.2-4.26-7.06-8.65-7.22c-0.21-2.49-0.38-4.57-0.55-6.63c-2.97-0.67-5.6-1.27-8.06-1.83
	c1.29-0.49,2.67-1.02,4.05-1.54c-0.11-0.41-0.22-0.81-0.32-1.22c-1.59,0.13-3.17,0.26-4.87,0.4c2.75-7.87-7.52-2.23-7.19-7.43
	c-4.1-0.75-8.21-1.51-12.23-2.24c0.39-0.35,0.98-0.87,1.74-1.55c-8.92-2.54-13.86-1.33-23.61,1.55c-5.61,1.65-11.58,1.86-15.86,6.4
	c-1.66,1.76-2.33,5.18-4.19,5.89c-7.13,2.73-8.77,9.44-11.01,15.12c-3.1,7.84-5.45,16.2-6.58,24.54
	c-1.12,8.24-1.09,16.82-0.13,25.09c0.99,8.55,3.14,17.08,5.83,25.28c2.26,6.89,5.43,13.65,9.3,19.77
	c2.95,4.67,7.22,8.78,11.64,12.19c7.63,5.88,15.5,11.9,25.74,12.27c8.54,0.3,17.09,0.06,26.26,0.06c-0.5-1.36-0.75-2.01-0.69-1.86
	c4.37-1.51,8.7-3.12,13.09-4.5c10.44-3.29,18.63-9.89,25.49-18.06c2.37-2.83,4.7-2.34,6.8-1.16c2.76,1.55,4.61,4.51,1.93,7.39
	c-5.84,6.29-9.16,14.69-17.04,19.37c-3.94,2.35-6.54,7.39-10.62,8.97c-7.07,2.74-12.9,8.67-21.13,8.51
	c-0.89-0.02-2.49,0.67-2.59,1.24c-0.76,4.36-4.26,2.85-6.53,2.87c-15.47,0.14-30.95,0.15-46.41-0.18c-2.66-0.06-5.28-1.94-7.92-2.98
	c0.15-0.43,0.3-0.86,0.45-1.29c-2.73,0-5.46,0-8.19,0c-0.02-0.4-0.03-0.81-0.05-1.21c1.69-0.17,3.37-0.34,5.06-0.52
	c-3.36-1.24-6.78-1.78-10.16-2.56c-0.91-0.21-1.65-1.12-2.48-1.69c-3.63-2.53-7.26-5.06-11.18-7.79c-0.07,0.1,0.48-0.67,1.27-1.78
	c-2.73-0.42-4.96-0.77-8.36-1.29c2.52-0.41,3.85-0.63,4.73-0.78c-3.82-3.98-7.59-7.9-11.18-11.64c-0.03,0.01,0.76-0.3,2.13-0.85
	c-2.67-1.02-4.73-1.8-7.54-2.87c1.8-0.71,2.64-1.04,3.88-1.53c-5.31-1.99-6.93-5.55-5.42-7.13c-0.81-2.64-1.12-4.15-1.72-5.53
	c-1.54-3.48-3.22-6.9-4.85-10.35c-0.45,0.21,0.37-0.18,0.48-0.23c-0.98-4.21-1.84-7.88-2.77-11.84c0.06-0.08,0.6-0.72,1.34-1.61
	c-1.49-0.55-2.51-0.93-3.88-1.43c1.23-0.79,2.13-1.36,3.03-1.94c-0.09-0.3-0.18-0.6-0.26-0.9c-3.36,0-6.72,0-10.08,0
	c-0.05,0.41-0.1,0.82-0.15,1.23c1.19,0.49,2.38,0.97,3.7,1.51c-1.34,0.66-2.49,1.23-4.64,2.3c1.27,0.78,2.07,1.28,2.87,1.77
	c-3.12,3.04-1.66,7.26-1.73,10.54c-0.35,17.73,0.08,35.47,0.55,53.2c0.29,10.73,6.16,16.14,16.85,16.05
	c11.33-0.1,22.65-0.43,33.98-0.53c25.32-0.22,50.63-0.5,75.95-0.51c19.49,0,38.98,0.65,58.46,0.4c4.59-0.06,9.37-2.13,13.62-4.19
	c1.43-0.69,1.47-4.24,2.14-6.49c0.07-1.49,0.29-2.81,0.52-4.11c0.37-2.05,1.1-4.1,1.08-6.15c-0.08-7.14-0.39-14.28-0.68-21.41
	c-0.18-4.36-1.32-8.87-0.52-13.02c1.02-5.29,0.66-10.27,0.01-15.45c-0.23-1.82,1-3.77,1.09-5.69c0.14-3.12,0.02-6.28-0.21-9.4
	c-0.24-3.2-1.55-6.56-0.93-9.54c0.82-3.96,0.84-7.62,0.03-11.49c-0.32-1.54,0.07-3.24,0.24-4.86c0.34-3.29,1.13-6.58,1.05-9.86
	c-0.12-4.63-1.17-9.23-1.26-13.85c-0.07-3.44,1.07-6.89,1.09-10.33c0.02-3.27-1.04-6.55-1.05-9.83c-0.01-3.43,0.81-6.86,1-10.3
	c0.19-3.54,0.23-7.11,0.02-10.65c-0.14-2.38-0.81-4.73-1.25-7.12c0.4-0.27,1.16-0.79,2.29-1.56c-1.28-0.89-2.16-1.51-2.93-2.05
	c0.68-0.64,1.43-1.34,2.13-1.99c-2.17-2.39-4.05-4.45-5.89-6.47c0.14-0.13,0.73-0.66,1.31-1.18c-2.37-0.97-4.74-1.94-6.57-2.68
	c0.11-0.04,0.93-0.33,1.74-0.63c-3.44-1.54-6.83-2.22-10.23-2.23c-24.16-0.07-48.33,0.02-72.49-0.01
	c-31.83-0.04-63.65-0.13-95.48-0.21C82,68,82.92,68.78,77.12,75.43c-4.35,4.99-3.47,10.26-3.62,15.06
	c-0.61,19.79-0.2,39.62-0.03,59.43c0.02,1.94,1.01,3.88,1.7,6.36c-0.05,0.04-0.89,0.7-2.18,1.73c1.63,0.59,2.73,0.98,3.79,1.36
	c-1.2,0.82-2.29,1.56-4.06,2.77c2.03,0.59,3.12,0.91,4.31,1.26c-1.18,0.77-2.31,1.51-3.62,2.37c2.4,1.24,4.41,2.27,6.42,3.31
	c-1.95-0.12-3.91-0.24-5.86-0.35c0.01,0.55,0.03,1.1,0.04,1.65c2.76,0,5.53,0,8.29,0c0-0.44,0-0.87,0-1.31
	C81.41,169.06,80.52,169.06,79.62,169.06z M82.73,176.05c-3.17,0.26-6.16,0.51-7.98,0.66c-0.27,2.84-0.41,4.29-0.58,6.04
	c2.65,0,5.51,0,8.56,0C82.73,180.69,82.73,178.95,82.73,176.05z M73.89,172.85c0.01,0.47,0.02,0.94,0.03,1.41c2.84,0,5.69,0,8.53,0
	c-0.01-0.47-0.03-0.94-0.04-1.41C79.57,172.85,76.73,172.85,73.89,172.85z"/>
<g>
	<path class="st3" d="M484.24,30.47c41.49,0,82.99-0.06,124.48,0.1c3.64,0.01,7.52,0.97,10.85,2.46c3.59,1.6,5.61,4.91,5.6,9.2
		c-0.01,3.15,0.52,6.31,0.52,9.46c0.01,78.83,0,157.65-0.05,236.48c0,4.64-0.32,9.28-0.56,13.92c-0.34,6.87-7.04,10.39-12.85,10.76
		c-4.65,0.29-9.33,0.27-13.99,0.27c-79.16,0.03-158.32-0.02-237.47,0.15c-10.68,0.02-15.71-4.23-17.92-13.8
		c-1.18-5.1-0.07-9.59-0.08-14.31c-0.13-74.99-0.13-149.98-0.02-224.98c0.01-6.61,0.7-13.28,1.7-19.82
		c0.94-6.11,5.56-9.61,11.8-9.62c42.66-0.04,85.32-0.02,127.99-0.02C484.24,30.63,484.24,30.55,484.24,30.47z M577.9,73.67
		c0.03-0.29,0.06-0.59,0.08-0.88c-0.89-0.25-1.77-0.71-2.66-0.73c-16.45-0.34-32.89-0.82-49.34-0.85
		c-12.73-0.03-25.46,0.72-38.19,0.74c-9.63,0.02-19.27-0.81-28.9-0.85c-22.29-0.09-44.59,0.05-66.88,0.18
		c-1.05,0.01-2.32,0.5-3.1,1.2c-4.5,4.02-6.98,8.68-6.95,15.17c0.19,57.48,0.1,114.96,0.08,172.45c0,6.51,4.79,12.77,11.72,12.97
		c15.28,0.44,30.57,0.91,45.85,0.99c25.27,0.12,50.53,0.03,75.8-0.16c19.3-0.14,38.61-0.45,57.9-1c2.71-0.08,6.09-1.22,7.86-3.09
		c2.31-2.44,4.04-5.96,4.71-9.28c0.7-3.47-0.26-7.25-0.33-10.89c-0.08-4.54,0.12-9.08-0.01-13.61c-0.13-4.61-1.28-9.34-0.55-13.78
		c0.83-5.08,0.01-9.92-0.08-14.87c-0.09-4.48,0.07-8.96,0.15-13.43c0.06-3.43,0.18-6.85,0.24-10.28c0.11-6.05,0.23-12.09,0.29-18.14
		c0.03-3.25,0.05-6.51-0.09-9.76c-0.2-4.53-0.83-9.07-0.78-13.59c0.07-6.08,0.85-12.16,0.86-18.24c0.01-4.51-1.71-9.22-0.88-13.49
		c1.31-6.77-0.11-13.25-0.21-19.86c-0.03-2.23-0.01-4.47-0.01-7.24c-0.83-0.25-2.22-0.67-3.26-0.99c0.86-0.43,2.02-1,3.17-1.58
		c-0.07-0.4-0.14-0.79-0.22-1.19c-2.11-0.42-4.22-0.84-6.5-1.29c1.72-0.32,3.25-0.61,4.78-0.89c0.03-0.59,0.06-1.17,0.1-1.76
		c-5.75-0.51-11.5-1.03-16.41-1.47C569.48,74.05,573.69,73.86,577.9,73.67z"/>
	<path class="st3" d="M443.2,262.19c3.97-0.22,7.09-0.39,10.78-0.59c-7.34-3.83-14.67-1.72-21.67-1.51c-3.12,0.09-4.6,0.63-4.9-3.01
		c-0.07-0.86-1.68-1.59-2.58-2.37c2.88-2.86,2.69-5.98,0.21-7.61c2.65-13.91,3.02-27.9,7.29-41.23c-0.04,0.02,0.11-0.07,0.26-0.1
		c8.38-1.35,10.94,2.9,11.36,10.61c0.24,4.27,1.8,8.88,4.06,12.55c4.54,7.36,9.6,14.53,17.05,19.39c1.29,0.84,3.36,0.43,4.78,1.16
		c8.15,4.18,16.58,4.18,24.67,0.68c6.24-2.69,11.14-7.57,14.61-13.56c0.61-1.05,0.47-2.52,0.84-4.79c0.34,0.26-0.48-0.37-1.5-1.14
		c1.18-0.54,2.05-0.94,3.39-1.56c-1.05-0.86-1.85-1.51-2.93-2.4c0.87-0.61,1.71-1.2,2.8-1.96c-1.04-0.68-1.93-1.27-2.52-1.66
		c2.62-5.73-3.17-9.59-3.39-14.99c-1.49-0.22-3.66-0.54-5.83-0.85c-0.02-0.35-0.05-0.7-0.07-1.05c1.78-0.24,3.55-0.49,6.69-0.91
		c-6-2.72-10.82-4.89-15.73-7.12c0.07-0.06,0.65-0.56,2.34-2.01c-8.17-2.38-15.57-4.53-22.96-6.68c-0.1,0.23-0.21,0.45-0.31,0.68
		c2.4-0.18,4.79-0.36,8.69-0.65c-6.08-1.23-10.74-2.17-15.88-3.21c1.62-0.2,2.83-0.35,4.05-0.5c0.05-0.26,0.1-0.52,0.15-0.78
		c-3.18-0.8-6.35-1.61-9.94-2.52c1.13-0.5,1.82-0.81,3.05-1.36c-4.45-0.9-8.42-1.7-12.39-2.5c0-0.2,0.01-0.4,0.01-0.6
		c1.91,0,3.83,0,5.74,0c0.06-0.39,0.13-0.79,0.19-1.18c-2.83-0.65-5.66-1.3-8.49-1.95c0.03-0.27,0.06-0.53,0.1-0.8
		c1.18-0.06,2.36-0.12,3.51-0.19c-3.94-2.47-7.88-4.94-11.81-7.41c0.3-0.3,0.61-0.6,0.91-0.9c-0.88-0.82-1.63-2.01-2.68-2.38
		c-3.62-1.28-4.55-3.5-2.55-7.15c-1.09-0.4-2.15-0.79-3.23-1.18c0-0.31-0.01-0.59,0-0.86c0.05-1.91,0.45-3.9,0.07-5.72
		c-0.45-2.1-1.59-4.06-3.02-5.53c0.15-2.78,0.97-5.74,0.31-8.31c-1.66-6.5,1.65-11.86,2.82-17.76c1.41-7.15,5.43-12.53,9.62-17.77
		c2.71-3.39,6.8-5.78,10.5-8.27c14.62-9.85,30.74-11.95,47.79-8.83c6.44,1.17,12.85,2.54,19.34,3.33c1.85,0.22,3.91-1.27,5.87-1.99
		c2.33-0.85,4.72-2.48,6.95-2.27c1.18,0.11,2.67,3.3,2.98,5.26c1.49,9.3,2.95,18.63,3.74,28.01c0.45,5.36-0.4,10.83-0.65,16.14
		c-0.49,0.26-0.76,0.45-1.07,0.57c-7.1,2.67-11.22,0.11-13.27-7.07c-1.03-3.62-3.22-6.59-7.93-5.88c1.4-0.1,2.79-0.2,4.19-0.3
		c0.11-0.34,0.22-0.69,0.32-1.03c-2.34-0.72-4.67-1.44-7.35-2.27c1.41-0.39,2.52-0.7,3.64-1.01c0.04-0.34,0.09-0.67,0.13-1.01
		c-1.69-0.56-3.38-1.13-5.71-1.91c1.41-0.42,2.27-0.68,4.35-1.31c-4.74-2.87-8.74-5.29-12.74-7.71c-0.24,0.23-0.49,0.47-0.73,0.7
		c1.39-0.22,2.79-0.44,4.18-0.65c0.09-0.44,0.19-0.88,0.28-1.32c-4.02-0.59-8.03-1.18-12.05-1.77c0.01-0.14,0.01-0.28,0.02-0.42
		c1.62,0,3.24,0,4.85,0c-8.76-2.67-17.35-3.75-25.65,1.4c-6.93,4.29-12.44,17.87-10.2,25.68c0.71,2.49,0.75,5.3,1.94,7.51
		c3.45,6.4,9.32,10.25,15.79,13.01c12.14,5.18,24.93,9.1,36.48,15.32c16.67,8.98,29.16,21.77,28.93,42.68
		c-0.06,5.15,0.26,10.33-0.18,15.45c-1.11,13.05-5.86,24.56-15.9,33.33c-4.17,3.64-8.86,6.69-12.72,9.56
		c-0.58-0.16,0.25,0.07,1.1,0.3c-3.64,0.94-7.25,1.87-12.2,3.14c2.64,0.49,3.88,0.72,5.12,0.95c-16.46,1.53-32.91,2.29-49.36,0.96
		c0-0.43-0.01-0.86-0.01-1.3c5.74,0,11.48,0,18.59,0C466.13,264.62,455.1,263.45,443.2,262.19z"/>
</g>
<g>
	<path class="st3" d="M788.88,30.47c41.49,0,82.99-0.06,124.48,0.1c3.64,0.01,7.52,0.97,10.85,2.46c3.59,1.6,5.61,4.91,5.6,9.2
		c-0.01,3.15,0.52,6.31,0.52,9.46c0.01,78.83,0,157.65-0.05,236.48c0,4.64-0.32,9.28-0.56,13.92c-0.34,6.87-7.04,10.39-12.85,10.76
		c-4.65,0.29-9.33,0.27-13.99,0.27c-79.16,0.03-158.32-0.02-237.47,0.15c-10.68,0.02-15.71-4.23-17.92-13.8
		c-1.18-5.1-0.07-9.59-0.08-14.31c-0.13-74.99-0.13-149.98-0.02-224.98c0.01-6.61,0.7-13.28,1.7-19.82
		c0.94-6.11,5.56-9.61,11.8-9.62c42.66-0.04,85.32-0.02,127.99-0.02C788.88,30.63,788.88,30.55,788.88,30.47z M882.54,73.67
		c0.03-0.29,0.06-0.59,0.08-0.88c-0.89-0.25-1.77-0.71-2.66-0.73c-16.45-0.34-32.89-0.82-49.34-0.85
		c-12.73-0.03-25.46,0.72-38.19,0.74c-9.63,0.02-19.27-0.81-28.9-0.85c-22.29-0.09-44.59,0.05-66.88,0.18
		c-1.05,0.01-2.32,0.5-3.1,1.2c-4.5,4.02-6.98,8.68-6.95,15.17c0.19,57.48,0.1,114.96,0.08,172.45c0,6.51,4.79,12.77,11.72,12.97
		c15.28,0.44,30.57,0.91,45.85,0.99c25.27,0.12,50.53,0.03,75.8-0.16c19.3-0.14,38.61-0.45,57.9-1c2.71-0.08,6.09-1.22,7.86-3.09
		c2.31-2.44,4.04-5.96,4.71-9.28c0.7-3.47-0.26-7.25-0.33-10.89c-0.08-4.54,0.12-9.08-0.01-13.61c-0.13-4.61-1.28-9.34-0.55-13.78
		c0.83-5.08,0.01-9.92-0.08-14.87c-0.09-4.48,0.07-8.96,0.15-13.43c0.06-3.43,0.18-6.85,0.24-10.28c0.11-6.05,0.23-12.09,0.29-18.14
		c0.03-3.25,0.05-6.51-0.09-9.76c-0.2-4.53-0.83-9.07-0.78-13.59c0.07-6.08,0.85-12.16,0.86-18.24c0.01-4.51-1.71-9.22-0.88-13.49
		c1.31-6.77-0.11-13.25-0.21-19.86c-0.03-2.23-0.01-4.47-0.01-7.24c-0.83-0.25-2.22-0.67-3.26-0.99c0.86-0.43,2.02-1,3.17-1.58
		c-0.07-0.4-0.14-0.79-0.22-1.19c-2.11-0.42-4.22-0.84-6.5-1.29c1.72-0.32,3.25-0.61,4.78-0.89c0.03-0.59,0.06-1.17,0.1-1.76
		c-5.75-0.51-11.5-1.03-16.41-1.47C874.12,74.05,878.33,73.86,882.54,73.67z"/>
	<path class="st3" d="M747.84,262.19c3.97-0.22,7.09-0.39,10.78-0.59c-7.34-3.83-14.67-1.72-21.67-1.51
		c-3.12,0.09-4.6,0.63-4.9-3.01c-0.07-0.86-1.68-1.59-2.58-2.37c2.88-2.86,2.69-5.98,0.21-7.61c2.65-13.91,3.02-27.9,7.29-41.23
		c-0.04,0.02,0.11-0.07,0.26-0.1c8.38-1.35,10.94,2.9,11.36,10.61c0.24,4.27,1.8,8.88,4.06,12.55c4.54,7.36,9.6,14.53,17.05,19.39
		c1.29,0.84,3.36,0.43,4.78,1.16c8.15,4.18,16.58,4.18,24.67,0.68c6.24-2.69,11.14-7.57,14.61-13.56c0.61-1.05,0.47-2.52,0.84-4.79
		c0.34,0.26-0.48-0.37-1.5-1.14c1.18-0.54,2.05-0.94,3.39-1.56c-1.05-0.86-1.85-1.51-2.93-2.4c0.87-0.61,1.71-1.2,2.8-1.96
		c-1.04-0.68-1.93-1.27-2.52-1.66c2.62-5.73-3.17-9.59-3.39-14.99c-1.49-0.22-3.66-0.54-5.83-0.85c-0.02-0.35-0.05-0.7-0.07-1.05
		c1.78-0.24,3.55-0.49,6.69-0.91c-6-2.72-10.82-4.89-15.73-7.12c0.07-0.06,0.65-0.56,2.34-2.01c-8.17-2.38-15.57-4.53-22.96-6.68
		c-0.1,0.23-0.21,0.45-0.31,0.68c2.4-0.18,4.79-0.36,8.69-0.65c-6.08-1.23-10.74-2.17-15.88-3.21c1.62-0.2,2.83-0.35,4.05-0.5
		c0.05-0.26,0.1-0.52,0.15-0.78c-3.18-0.8-6.35-1.61-9.94-2.52c1.13-0.5,1.82-0.81,3.05-1.36c-4.45-0.9-8.42-1.7-12.39-2.5
		c0-0.2,0.01-0.4,0.01-0.6c1.91,0,3.83,0,5.74,0c0.06-0.39,0.13-0.79,0.19-1.18c-2.83-0.65-5.66-1.3-8.49-1.95
		c0.03-0.27,0.06-0.53,0.1-0.8c1.18-0.06,2.36-0.12,3.51-0.19c-3.94-2.47-7.88-4.94-11.81-7.41c0.3-0.3,0.61-0.6,0.91-0.9
		c-0.88-0.82-1.63-2.01-2.68-2.38c-3.62-1.28-4.55-3.5-2.55-7.15c-1.09-0.4-2.15-0.79-3.23-1.18c0-0.31-0.01-0.59,0-0.86
		c0.05-1.91,0.45-3.9,0.07-5.72c-0.45-2.1-1.59-4.06-3.02-5.53c0.15-2.78,0.97-5.74,0.31-8.31c-1.66-6.5,1.65-11.86,2.82-17.76
		c1.41-7.15,5.43-12.53,9.62-17.77c2.71-3.39,6.8-5.78,10.5-8.27c14.62-9.85,30.74-11.95,47.79-8.83
		c6.44,1.17,12.85,2.54,19.34,3.33c1.85,0.22,3.91-1.27,5.87-1.99c2.33-0.85,4.72-2.48,6.95-2.27c1.18,0.11,2.67,3.3,2.98,5.26
		c1.49,9.3,2.95,18.63,3.74,28.01c0.45,5.36-0.4,10.83-0.65,16.14c-0.49,0.26-0.76,0.45-1.07,0.57c-7.1,2.67-11.22,0.11-13.27-7.07
		c-1.03-3.62-3.22-6.59-7.93-5.88c1.4-0.1,2.79-0.2,4.19-0.3c0.11-0.34,0.22-0.69,0.32-1.03c-2.34-0.72-4.67-1.44-7.35-2.27
		c1.41-0.39,2.52-0.7,3.64-1.01c0.04-0.34,0.09-0.67,0.13-1.01c-1.69-0.56-3.38-1.13-5.71-1.91c1.41-0.42,2.27-0.68,4.35-1.31
		c-4.74-2.87-8.74-5.29-12.74-7.71c-0.24,0.23-0.49,0.47-0.73,0.7c1.39-0.22,2.79-0.44,4.18-0.65c0.09-0.44,0.19-0.88,0.28-1.32
		c-4.02-0.59-8.03-1.18-12.05-1.77c0.01-0.14,0.01-0.28,0.02-0.42c1.62,0,3.24,0,4.85,0c-8.76-2.67-17.35-3.75-25.65,1.4
		c-6.93,4.29-12.44,17.87-10.2,25.68c0.71,2.49,0.75,5.3,1.94,7.51c3.45,6.4,9.32,10.25,15.79,13.01
		c12.14,5.18,24.93,9.1,36.48,15.32c16.67,8.98,29.16,21.77,28.93,42.68c-0.06,5.15,0.26,10.33-0.18,15.45
		c-1.11,13.05-5.86,24.56-15.9,33.33c-4.17,3.64-8.86,6.69-12.72,9.56c-0.58-0.16,0.25,0.07,1.1,0.3c-3.64,0.94-7.25,1.87-12.2,3.14
		c2.64,0.49,3.88,0.72,5.12,0.95c-16.46,1.53-32.91,2.29-49.36,0.96c0-0.43-0.01-0.86-0.01-1.3c5.74,0,11.48,0,18.59,0
		C770.77,264.62,759.74,263.45,747.84,262.19z"/>
</g>
<g>
	<path class="st4" d="M49.28,519.6c-5.53-41.12-11.12-82.23-16.54-123.37c-1.58-12.02,2.69-17.5,14.69-19.13
		c45.24-6.17,90.49-12.24,135.75-18.32c36.66-4.92,73.33-9.84,110-14.69c12.1-1.6,17.18,2.24,18.79,14.16
		c11.04,81.91,22.06,163.82,33.04,245.74c1.6,11.95-2.95,17.74-14.9,19.45c-28.35,4.05-56.67,8.32-85.05,12.15
		c-33.5,4.52-67.05,8.64-100.57,13.01c-21.3,2.78-42.58,5.7-63.86,8.57c-5.64,0.76-13.48-5.2-14.34-11.24
		c-2.92-20.62-5.75-41.26-8.56-61.9c-2.92-21.47-5.78-42.94-8.67-64.41C49.14,519.61,49.21,519.6,49.28,519.6z M83.18,416.43
		c-7.01,0.73-7.04,5.57-6.73,10.56c0.11,1.81,0.43,3.6,0.67,5.4c4.58,34.54,9.15,69.08,13.76,103.61
		c2.78,20.89,5.55,41.78,8.47,62.65c1.53,10.93,6.31,16.67,18.57,13.99c2.92-0.64,5.93-0.86,8.9-1.26
		c54.64-7.37,109.27-14.73,163.91-22.13c5.14-0.7,9.69-5.1,10.07-9.85c0.24-3.06,0.2-6.21-0.2-9.25
		c-2.68-20.59-5.47-41.17-8.24-61.75c-4.64-34.36-9.15-68.73-14.14-103.03c-0.52-3.54,1.62-9.57-5.22-10.41
		c-0.16-0.02-0.34-0.32-0.41-0.52c-0.9-2.65-0.89-2.63-3-2.58c-1.48,0.04-2.96,0.03-4.79,0.04c1.48-0.87,2.6-1.53,3.72-2.19
		c-5.1-0.64-9.91-0.56-14.65,0.07c-51.52,6.84-103.02,13.74-154.52,20.73c-5.76,0.78-11.44,2.17-17.15,3.32
		c-0.44,0.09-0.82,0.45-1.49,0.83C81.5,415.22,82.11,415.66,83.18,416.43z"/>
	<path class="st4" d="M161.09,579.18c5.69,0.13,10.7,0.88,15.54,0.24c15.18-2.02,30.3-4.46,45.41-6.95
		c7.28-1.2,12.7-5.12,17.23-11.17c5.37-7.18,11.85-13.54,17.76-20.32c1.32-1.52,2.19-3.41,3.44-5.01c4.59-5.89,4.62-5.87,12.13-3.12
		c-1.17,4.68-2.3,9.44-3.56,14.17c-2.74,10.27-5.56,20.53-8.34,30.79c-1.08,4-3.02,6.52-7.79,6.74c-10.96,0.52-21.9,2.36-32.84,2.27
		c-22.79-0.18-44.91,4.78-67.28,7.72c-7.32,0.96-14.44,3.44-21.66,5.18c-1.03,0.25-2.14,0.2-3.29-0.37
		c2.43-0.33,4.85-0.65,7.28-0.98c-0.03-0.3-0.06-0.59-0.09-0.89c-5.77,0.47-11.55,0.91-17.32,1.42c-5.67,0.5-7.93-1.75-5.75-6.96
		c4.05-9.67,8.67-19.11,13.29-28.53c3.34-6.81,7.05-13.43,10.61-20.13c6.42-12.06,12.86-24.11,19.3-36.16
		c3.51-6.57,7.05-13.13,10.54-19.72c4.97-9.38,9.94-18.76,14.84-28.17c3.48-6.69,6.06-14.03,10.55-19.93
		c2.89-3.8,1.62-8.45,4.71-12.1c-0.85-0.45-1.78-0.95-3.06-1.63c1.29-0.58,2.5-1.12,3.74-1.68c-0.31-0.5-0.41-0.91-0.63-0.98
		c-13.2-4.36-25.81,0.7-38.67,2.27c-14.9,1.82-21.31,13.56-28.86,23.96c-4.78,6.57-9.03,13.53-13.72,20.17
		c-1.95,2.77-4.94,2.65-7.63,1.13c-2.16-1.22-3.23-2.56-2.4-5.89c1.79-7.14,2.06-14.64,3.5-21.89c1.04-5.22,2.96-10.27,4.46-15.4
		c0.22-0.77,0.46-1.61,0.38-2.38c-0.53-5.53,3.16-6.6,7.4-7.12c26.61-3.26,53.24-6.42,79.84-9.82c14.54-1.85,29.03-4.14,43.56-6.14
		c6.35-0.87,8.03,1.11,5.2,6.96c-6.55,13.54-13.47,26.89-20.36,40.26c-4.81,9.33-9.78,18.59-14.74,27.84
		c-7.35,13.71-14.82,27.36-22.11,41.11c-3.68,6.94-6.99,14.08-10.63,21.05c-5.87,11.27-11.9,22.46-17.78,33.72
		C162.51,574.17,162.2,575.83,161.09,579.18z"/>
</g>
<g>
	<path class="st5" d="M373.53,496.53c3.32-42.68,6.64-85.37,9.97-128.05c0.49-6.23,6.9-11.52,14.07-11.37
		c4.15,0.08,8.3,0.67,12.45,0.99c79.56,6.19,159.12,12.37,238.68,18.55c12.37,0.96,16.75,5.95,15.77,18.52
		c-5.69,72.91-11.47,145.81-17.2,218.72c-0.73,9.3-1.17,18.62-1.96,27.91c-1.1,12.98-6.36,17.39-19.18,16.4
		c-79.4-6.13-158.79-12.23-238.18-18.5c-6.33-0.5-12.88-1.46-18.75-3.7c-4.31-1.65-6.61-6.4-6.22-11.48
		c3.28-42.68,6.62-85.36,9.94-128.04C373.12,496.49,373.33,496.51,373.53,496.53z M621.92,436.8c0.89-2.1-4.76-0.67-1.81-4.26
		c1.25-1.52-0.28-6.51-2-8.83c-1.12-1.5-1.67-2.68-1.64-4.25c0.05-3.02-1.74-4.03-4.31-4.4c-4.28-0.61-8.53-1.49-12.82-1.83
		c-49.65-3.92-99.31-7.78-148.97-11.61c-6.47-0.5-12.96-0.97-19.44-1.13c-5.24-0.13-10.35,4.29-11.19,9.35
		c-0.76,4.56-1.57,9.14-1.91,13.74c-4.1,54.59-8.12,109.19-12.13,163.79c-0.53,7.21,2.98,12.41,10,14.22
		c4.43,1.14,9.04,1.82,13.62,2.19c52.64,4.24,105.27,8.49,157.93,12.37c4.76,0.35,9.92-1.34,14.47-3.15
		c2.43-0.96,2.87-5.81,4.13-7.05c3.14-3.05,2.67-7.04,3.09-9.82c0.56-3.7-0.11-7.71,1.3-11.59c0.53-1.47-0.07-3.35-0.12-5.04
		c-0.07-2.08-0.35-4.18-0.11-6.23c0.52-4.49,1.4-8.94,1.95-13.43c0.16-1.29,0.81-9.89,0.79-10.82c-0.05-2.39-0.39-4.77-0.62-7.15
		c0.14,0.03,0.29,0.07,0.43,0.1c0.2-2.63,0.41-5.26,0.67-8.56c-0.39,0.18,0.46-0.21,0.29-0.14c0.2-2.53,0.4-4.16,0.43-5.81
		c0.03-1.71-0.1-3.42-0.16-5.13c0.06-0.03,0.12-0.07,0.18-0.1c0.21-2.72,0.42-5.45,0.68-8.74c-0.22,0.1,0.61-0.28,0.52-0.24
		c-0.01-6.8-1.33-13.26,0.34-18.81c1.78-5.89,0.26-12.18,2.87-18.45c-0.11-0.1-1.48-0.8-1.41-1.34c0.35-3.04,1.14-6.04,1.57-9.07
		c0.35-2.46,0.42-4.97,0.66-8.06c-0.34,0.16,0.48-0.23,0.12-0.06c0.31-3.93,1.28-7.05,0.57-9.72c-0.83-3.12,0.09-5.29,1.54-7.67
		c-0.68-0.6-1.37-1.2-2.06-1.81C620.33,437.71,621.12,437.25,621.92,436.8z"/>
	<path class="st5" d="M446.57,575.36c-1.16-0.81-2.06-1.44-3.06-2.13c0.95-0.51,2.55-0.89,2.64-1.5c0.5-3.29,0.63-6.63,0.94-10.59
		c1.44-0.7,3.11-2.02,0.05-3.17c0.34-1.35,0.61-2.47,0.89-3.59c-0.48-0.12-0.97-0.25-1.45-0.37c1.18-1.38,5.57-2.6-0.26-4.29
		c2.85-1.18,5.01-2.36,0.63-3.99c2.06-1.3,5.71-2.49,1.7-3.56c0.15-1.88,0.25-3.23,0.41-5.31c-0.43,0.18,0.42-0.18,1.78-0.76
		c-1.07-1.05-1.88-1.85-1.77-1.74c0.39-1.87,0.63-3.06,0.87-4.25c0.4-1.56,3.12-2.78-1.42-4.39c1.98-1.26,5.69-2.4-0.26-4
		c3.75-1.2,4.98-2.48,0.67-4.11c2.71-1.02,4.93-1.98,0.78-3.7c1.46-1.29,4.85-2.48,0.1-4.07c1.85-1.23,5.02-2.3,0.29-4.03
		c2.25-1.25,4.89-2.47,0.24-4.08c2-1.08,5.31-1.86,1.78-3.32c0.24-3.08,0.45-5.81,0.66-8.53c-0.13,0.04-0.26,0.09-0.38,0.13
		c0.35-1.23,0.69-2.46,1.04-3.68c0.83-1.68,2.86-2.98-0.07-4.01c0.14-1.85,0.25-3.26,0.41-5.21c2.01-0.57,2.26-1.83-1-3.29
		c4.12-2.69,4.77-25.16,0.95-28.44c0.74-0.31,1.49-0.63,2.66-1.12c-1.08-1.06-1.94-1.91-2.81-2.77c0.82-0.51,1.61-1.01,2.79-1.75
		c-1.55-0.93-2.77-1.67-3.99-2.41c1.16-0.36,2.31-0.71,3.47-1.07c0.07-0.37,0.14-0.74,0.22-1.1c-2.33-0.69-4.65-1.37-7.83-2.31
		c2.74-0.19,4.69-0.33,6.65-0.47c0.11-0.36,0.23-0.72,0.34-1.07c-1.93-0.79-3.86-1.57-5.67-2.31c0.66-0.12,1.59-0.3,2.51-0.47
		c0.06-0.25,0.12-0.49,0.18-0.74c-2.76-0.53-5.49-1.21-8.27-1.57c-4.95-0.64-5.84-2.22-5.24-8.44c0.45-4.65,2.89-5.95,7.08-5.13
		c25.83,5.06,52.07,6.36,78.23,8.22c15.68,1.11,31.42,1.31,47.12,2.13c5.68,0.3,7.25,2.61,7.95,8.1c1.01,7.98,2.71,15.87,3.8,23.84
		c0.67,4.9,3.18,9.82-0.04,14.83c-1.98,3.08-4.48,2.44-6.83,1.2c-3.04-1.6-5.83-3.67-7.91-5.01c0.15-0.03,1.68-0.3,3.14-0.57
		c-2.69-2.37-5.12-4.6-7.65-6.71c-2.42-2.01-4.95-3.89-7.52-5.9c-0.27,0.17,0.25-0.16,0.18-0.11c-1.75-2.17-3.23-4.77-5.4-6.53
		c-3.27-2.66-7.01-4.73-11.45-6.32c1.19-0.2,2.37-0.39,3.56-0.59c0.08-0.54,0.17-1.08,0.25-1.62c-4.68-0.81-9.37-1.61-14.15-2.44
		c1.64-0.04,3.24-0.09,4.84-0.13c-10.83-5.11-22.44-3.91-33.66-5.15c-2.82,17.5-5.14,34.52-6.08,51.69
		c-0.24,4.28-0.37,8.58-0.18,12.85c0.05,1.08,1.56,2.09,2.39,3.13c0.17,0.21,0.31,0.45,0.46,0.68c-0.32,0.07-0.63,0.15-1.99,0.47
		c4.8,0.37,8.59,0.67,13.03,1.01c-1.1-0.33-1.56-0.46-2.01-0.6c-0.02-0.23-0.04-0.46-0.06-0.69c2.02,0.03,4.06-0.04,6.07,0.1
		c5.24,0.38,10.04-1.01,13.33-5.02c3.57-4.35,7-9.04,9.37-14.1c2.44-5.24,6.15-2.44,9.35-2.54c3.35-0.11,2.71,2.62,2.6,4.73
		c-0.84,15.95-1.54,31.92-2.6,47.86c-0.55,8.29-1.01,8.14-9.65,7.14c-0.93-0.11-1.99-1.36-2.51-2.34c-1.58-2.96-2.59-6.28-4.5-8.97
		c-0.96-1.36-3.39-1.68-5.11-2.45c0.81-0.14,1.87-0.33,2.93-0.51c0.08-0.31,0.15-0.63,0.23-0.94c-1.52-0.62-3.04-1.25-4.56-1.87
		c0.27-0.16,0.54-0.32,0.81-0.48c-0.49-0.86-0.77-2.12-1.51-2.52c-2.83-1.49-5.69-3.37-8.74-3.88c-5.58-0.94-11.3-1.02-18.41-1.58
		c1.85,1.01,2.37,1.29,1.89,1.03c-1.27,3.21-3.26,6.18-3.53,9.3c-0.89,10.21-1.24,20.48-1.62,30.73
		c-0.27,7.22-0.58,14.47-0.28,21.68c0.29,6.75,5.1,11.29,11.8,11.89c7.47,0.67,15.11,0.43,22.38,1.97
		c8.24,1.75,15.53-1.25,22.41-3.93c5.66-2.2,9.98-7.84,14.91-11.94c6.29-5.22,12.52-10.53,19-15.5c0.86-0.66,3.81-0.1,4.48,0.84
		c1.41,1.97,3.1,4.83,2.62,6.84c-1.3,5.45-3.65,10.66-5.62,15.95c-2.11,5.65-4.72,11.17-6.23,16.98c-1.14,4.41-5.08,6.26-7.62,6.21
		c-12.59-0.24-25.16-1.43-37.73-2.46c-9.95-0.81-19.87-2-29.82-2.77c-12.95-1-25.92-1.69-38.88-2.6c-9.94-0.7-19.87-1.5-29.79-2.35
		c-4.78-0.41-6.17-2.44-6.11-7.3c0.06-4.69,2.21-5.75,6.6-5.48c3.58,0.22,8.03,1.88,10.34-3.23
		C442.54,576.04,444.79,575.96,446.57,575.36z M543.82,600.4c0.01-0.18,0.03-0.37,0.04-0.55c-19.77-1.54-39.54-3.08-59.32-4.62
		c-0.01,0.18-0.03,0.37-0.04,0.55C504.28,597.32,524.05,598.86,543.82,600.4z"/>
</g>
<path class="st2" d="M857.7,373.97c40.46,5.38,80.93,10.74,121.39,16.18c3.44,0.46,7.21,0.7,10.12,2.31
	c5.17,2.86,6.49,8.12,5.91,13.79c-0.55,5.3-1.21,10.6-1.91,15.88c-10.27,77.3-20.55,154.59-30.84,231.89
	c-0.74,5.53-1.68,11.33-7.42,13.76c-3.65,1.55-8.01,2.31-11.97,2.07c-8.43-0.52-16.82-1.88-25.21-2.98
	c-15.67-2.05-31.32-4.16-46.98-6.24c-39.61-5.27-79.22-10.53-118.83-15.8c-17.63-2.35-35.28-4.63-52.89-7.17
	c-3.73-0.54-7.94-1.27-10.8-3.41c-2.75-2.06-4.98-5.85-5.73-9.26c-0.9-4.09-0.37-8.63,0.19-12.9
	c9.77-74.17,19.62-148.33,29.55-222.48c1.02-7.59,2.53-15.11,3.97-22.63c1.09-5.71,6.9-10.31,12.61-9.84
	c5.97,0.49,11.92,1.29,17.86,2.07c37,4.9,73.99,9.83,110.99,14.75C857.7,373.96,857.7,373.96,857.7,373.97z M860.23,574.34
	c-4.67-7.14-9.29-14.2-14-21.41c0.13-0.16,0.57-0.74,0.14-0.18c-2.45-3.8-4.43-6.86-6.4-9.92c0.3-0.18,0.59-0.36,0.89-0.54
	c-1.67-0.61-3.33-1.21-6.14-2.24c1.85-0.59,2.73-0.87,3.1-0.99c-4.18-5.87-8.03-11.27-11.86-16.65c0.65-0.53,1.28-1.04,2.16-1.76
	c-2.15-0.68-3.72-1.17-4.55-1.43c-2-4.22-3.71-7.85-5.43-11.47c0.35-0.19,0.69-0.38,1.04-0.57c-1.67-0.63-3.34-1.27-5.28-2.01
	c0.91-0.74,1.5-1.22,2.06-1.68c-4.62-7.03-9.19-13.99-13.71-20.87c-1.41-1.67-2.62-3.11-3.88-4.62c0.2-0.22,0.75-0.83,1.52-1.68
	c-2.13-0.74-5.24-1.2-5.32-1.96c-0.66-6.84-5.57-3.03-8.39-4.36c-0.74,3.59-1.6,6.49-1.92,9.45c-2.92,26.74-5.91,53.48-8.44,80.26
	c-0.51,5.42,0.7,11.03,1.45,16.51c0.19,1.39,1.69,2.57,2.48,3.91c2.85,4.79,7.69,5.15,12.46,5.55c2.77,0.24,3.6,1.53,3.42,4.26
	c-0.46,6.71-1.63,7.55-7.4,6.22c-5.5-1.27-11.17-1.77-16.77-2.55c-0.94-0.13-1.93,0.06-4.12,0.15c5.05,1.45,8.79,2.53,12.54,3.61
	c-0.05,0.15-0.09,0.31-0.14,0.46c-11.66-1.55-23.33-3.1-35.34-4.7c0.99-0.63,1.58-1.01,2.17-1.39c-0.07-0.29-0.15-0.58-0.22-0.87
	c-3.55,0.03-7.1,0.06-11.34,0.1c0.54-4.05,1.09-8.18,1.67-12.53c3.66,0.28,7.26,0.55,10.9,0.83c-0.1-1.18-0.35-2.75-0.23-2.78
	c6.73-1.63,6.98-8.5,9.05-12.93c3-6.42,3.35-14.13,4.54-21.33c0.88-5.36,0.96-10.87,2.02-16.18c1.42-7.04,4.01-13.87,5.11-20.94
	c2.25-14.5,4.05-29.08,5.59-43.67c0.55-5.26,1.01-10.93-3.25-15.23c0.87-0.35,1.79-0.72,2.1-0.84c-2.37-4.41-4.55-8.46-6.64-12.35
	c0,0,1.01-0.24,1.1-0.26c-2.38-2.4-4.48-5.49-7.38-7.24c-7.33-4.44-11.9-2.11-13.04,6.55c-6.88,52.06-13.67,104.14-20.4,156.22
	c-0.94,7.27,4.05,13.34,11.66,14.35c58.14,7.78,116.28,15.56,174.46,23.06c3.21,0.41,7.01-1.22,10.01-2.87
	c1.39-0.76,1.47-3.85,2.25-5.84c0.2-0.5,1.04-0.77,1.19-1.27c0.72-2.33,1.3-4.71,2.15-7.89c-0.25,0.12,0.66-0.32,1.81-0.88
	c-1.21-0.8-1.99-1.31-1.55-1.03c0.43-3.25,0.75-5.67,1.08-8.09c0.3-2.26,0.6-4.51,0.9-6.77c0.48-0.01,0.96-0.03,1.44-0.04
	c-0.82-0.62-1.65-1.25-2.75-2.08c1.24-0.57,2.11-0.97,3.38-1.55c-0.64-0.65-1.66-1.23-1.61-1.7c0.43-4.42,0.28-9.11,1.78-13.17
	c2.07-5.6,1.24-11.54,3.18-17.28c1.09-3.21,1.65-8.05,1.2-11.75c-0.28-2.33,1.25-2.89,1.29-4.36c0.09-3.48-0.13-6.99,0.24-10.43
	c0.49-4.59,1.59-9.12,2.12-13.72c0.53-4.6,0.5-9.26,1.03-13.85c0.58-4.97,1.45-9.92,2.38-14.84c0.43-2.27,1.3-4.46,2.03-6.9
	c-0.39-0.31-1.13-0.9-0.96-0.76c0.91-6.81,1.72-12.92,2.59-19.45c-0.14-0.12-0.87-0.75-0.65-0.56c0.56-4.23,1.02-7.67,1.46-10.99
	c-5.25,0.6-10.47,1.15-15.67,1.83c-0.48,0.06-1,0.86-1.24,1.43c-2.03,4.82-4.53,9.52-5.86,14.54c-1.86,7.04-2.92,14.31-4.18,21.5
	c-5.25,29.89-10.55,59.78-15.61,89.7c-1.74,10.29-2.58,20.74-4.36,31.03c-1.11,6.42-7.05,8.19-11.8,4.07
	c-4.6-4-10.01-7.11-13.1-12.72c-1.12-2.04-4.07-3.63-4.2-5.56c-0.25-3.73-3.61-4.88-4.88-7.67c-1.05-2.32-3.21-4.14-5-6.33
	c0.07-0.07,0.75-0.76,1.72-1.75c-2.06-0.75-3.58-1.3-6.43-2.33C859.15,574.77,859.72,574.54,860.23,574.34z M749.9,413.6
	c2.14-0.88,4.12-2.51,5.85-2.28c16.67,2.18,33.33,4.47,49.91,7.25c2.91,0.49,6.32,2.81,7.94,5.29
	c9.39,14.45,18.33,29.19,27.37,43.85c9.82,15.92,19.62,31.84,29.36,47.8c5.63,9.23,11.25,18.48,16.64,27.86
	c2.46,4.28,5.84,3.16,9.11,3.28c0.12-0.42,0.24-0.84,0.36-1.26c-1.81-0.55-3.61-1.1-5.42-1.66c0.06-0.23,0.13-0.47,0.19-0.7
	c1.91-0.01,3.82-0.02,6.24-0.04c0.46-5.22,0.73-10.13,1.36-14.99c0.42-3.26,2.97-7.63,1.68-9.41c-2-2.75,0.81-3.17,0.68-4.6
	c-0.18-2.1-0.99-4.23-0.77-6.27c0.36-3.32,1.62-6.55,2-9.87c0.7-6.15,1.13-12.33,1.48-18.51c0.2-3.45-0.11-6.93,0.04-10.39
	c0.14-3.14,0.54-6.13-0.58-9.34c-0.62-1.78-1.3-6.17-3.16-7.43c-0.36-0.25-0.81-0.36-1.62-0.71c2.1-0.56,3.09-0.83,5.29-1.42
	c-3.68-1.2-6.13-2-9.32-3.04c1.77-0.5,2.86-0.81,3.94-1.12c-2.6-1.59-5.29-2.15-7.92-2.92c-4.87-1.42-4.96-5.16-4.16-9.16
	c0.78-3.9,3.22-4.96,6.99-4.07c6.12,1.44,12.24,2.94,18.45,3.89c4.55,0.7,9.23,0.45,13.84,0.82c4.15,0.33,8.28,0.88,12.41,1.41
	c3.13,0.4,7.45-1.25,7.81,4.3c0.01,0.12,1.16,0.17,1.64,0.23c-0.05-1.75-0.09-3.3-0.15-5.34c-0.94-0.49-2.45-1.28-4.14-2.16
	c1.02-0.36,1.74-0.61,2.46-0.86c0.04-0.45,0.09-0.89,0.13-1.34c-5.74-1.31-11.49-2.63-17.23-3.94c0.03-0.2,0.06-0.39,0.09-0.59
	c4.71,0.63,9.41,1.25,14.12,1.88c-19.83-6.95-40.66-7.62-61.07-10.74c-20.58-3.14-41.24-5.78-61.91-8.26
	c-20.52-2.47-40.89-6.63-62.42-6.87c1.3,1.29,1.9,1.88,2.73,2.71C752.92,404.82,751.4,406.16,749.9,413.6z"/>
<path class="st4" d="M175.83,706.4c41.32,0,82.65,0.22,123.97-0.14c11.6-0.1,16.4,5.74,16.37,16.28
	c-0.1,38.99,0.07,77.98,0.09,116.97c0.02,42.99-0.01,85.98-0.03,128.97c0,2.83,0.17,5.71-0.3,8.48c-1.17,7-7.17,10.74-14.61,10.14
	c-4.78-0.39-9.65,0.31-14.47,0.31c-75.48,0.02-150.97,0-226.45,0.04c-5.09,0-10.18,0.56-15.27,0.59
	c-4.53,0.03-10.92-7.08-11.24-12.55c-0.31-5.32-0.35-10.66-0.35-15.99c-0.02-75.32-0.04-150.63,0.04-225.95
	c0.01-5.13,0.39-10.32,1.25-15.38c1.41-8.31,5.9-11.79,14.52-11.8c42.16-0.03,84.31-0.01,126.47-0.01
	C175.83,706.37,175.83,706.39,175.83,706.4z M269.61,748.09c-0.06-0.42-0.12-0.84-0.19-1.26c-63.21,0-126.42,0-190.12,0
	c0.5,1.25,0.82,2.04,1.14,2.84c-5.26,1.52-7.39,4.29-7.4,10.25c-0.02,23.93,0.02,47.87,0.18,71.8c0.01,0.84,1.44,1.67,1.54,1.77
	c-0.74,0.5-1.56,1.06-3,2.03c6.66,2.87,8,2.4,8.68-2.1c1.83-12.19,6.26-23.02,13.47-33.3c6.68-9.53,13.54-18.12,23.43-24.63
	c12.4-8.17,25.62-12.96,40.24-15.28c23.99-3.8,46.97-1.53,68.95,9c3.35,1.61,5.45,0.69,7.85-1.8c1.41-1.46,3.89-2.86,5.69-2.64
	c1.12,0.14,2.53,3.29,2.68,5.18c1.19,15.02,1.94,30.07,3.22,45.08c0.44,5.1-0.63,7.26-6.22,8.18c-6.24,1.03-6.26-3.94-8.22-6.76
	c-4.02-5.77-6.97-12.32-11.22-17.9c-4.87-6.39-9.38-12.89-16.77-17.53c-5.78-3.63-10.75-7.12-17.71-6.73
	c-0.46,0.03-0.93-0.2-1.46-0.32c0.39-0.88,0.74-1.66,1.41-3.15c-6.03,0-11.49-0.03-16.95,0.03c-0.77,0.01-1.56,0.41-2.3,0.73
	c-2.23,0.96-4.41,2.03-6.66,2.92c-1.06,0.42-2.54,0.18-3.33,0.84c-6.83,5.74-14.64,10.21-19.55,18.32
	c-5.43,8.97-10.14,18.02-12.65,28.25c-3.07,12.52-3.22,25.01-1.56,37.75c2.04,15.62,6.05,30.44,15.87,43.04
	c3.08,3.96,6.87,7.53,10.87,10.57c3.87,2.95,8.17,6.31,12.73,7.21c14.79,2.92,29.83,5.05,42.34-4.26
	c5.08-13.29,3.91-25.9,1.87-39.08c-0.04,0.05,0.58-0.67,1.73-1.99c-3.64-0.44-6.43-0.78-10.42-1.26c3.35-0.88,5.45-1.44,8.67-2.29
	c-6.01-1.23-10.75-2.2-15.67-3.21c0-3.37,0-6.57,0-9.82c1.12-0.14,1.77-0.3,2.42-0.3c21.48-0.05,42.97-0.06,64.45-0.16
	c3.34-0.02,4.86,1.37,4.97,4.71c0.16,4.82-2.05,7.5-7.59,7.44c-4.99-0.05-6.94,2.27-7.08,6.73c-0.37,11.88-1.39,23.81-0.65,35.62
	c0.36,5.74-2.44,8.09-6.03,9.82c-7.81,3.77-15.27,8.85-24.55,8.68c-1.1-0.02-2.22,1.06-3.55,1.75c0.95,0.5,1.52,0.8,1.83,0.97
	c-26.52,2.98-53.17,3.83-79.81,0.13c2.11-0.33,4.22-0.65,6.33-0.98c0.03-0.49,0.06-0.98,0.09-1.47
	c-12.98,0.07-22.5-7.92-32.81-13.91c0.1-0.14,0.53-0.75,0.97-1.37c-2.78-1.58-9.73-8.55-12.62-12.83c-0.83-1.24-0.83-3.32-1.89-4.07
	c-4.21-2.98-5.79-7.37-7.48-11.88c-0.83-2.21-2.46-4.13-3.61-5.98c-0.11,0.06,1.03-0.52,3.09-1.55c-2.33-1.02-3.54-1.55-4.75-2.09
	c2.21-3.08,0.92-6.69-2.7-8.05c1.1-0.49,2.21-0.98,3.29-1.46c-2.06-4.37-3.93-8.54-9.42-5.18c0,3.79,0.03,7.46,0,11.13
	c-0.16,19.75-0.34,39.5-0.49,59.25c-0.07,9.27,4.52,15.63,16.04,15.49c34.66-0.41,69.32-0.19,103.99-0.24
	c24-0.04,47.99-0.19,71.99-0.1c4.48,0.02,7.92-2.7,8.75-5.74c2.07-7.63,3.18-15.62,3.68-23.53c0.23-3.55-0.6-7.18-0.16-10.94
	c0.18-1.57,0.25-3.46,0.23-5.18c-0.04-3.22-1.3-6.44-1.27-9.66c0.03-3.36,1.36-6.7,1.43-10.06c0.1-5.12-0.38-10.25-0.68-15.37
	c-0.13-2.18-0.43-4.35-0.66-6.59c2.01-8.36-0.84-17.24,1.28-25.71c0.11-0.45-1.52-1.35-2.34-2.03c0.39,0.02,0.79,0.05,1.18,0.07
	c0-1.36,0-2.72,0-4.95c-0.28,0.26,1.24-0.54,1.18-1.2c-0.28-3.2-1.11-6.36-1.48-9.56c-0.19-1.6,0.13-3.28,0.31-4.91
	c0.24-2.14,0.83-4.28,0.77-6.4c-0.05-1.94-1.01-3.84-1.12-5.78c-0.13-2.22,0.2-4.47,0.36-6.7c0.14-1.95,0.42-3.9,0.49-5.86
	c0.07-1.99,0.02-3.99-0.12-5.98c-0.14-1.83-0.51-3.64-0.69-5.47c-0.04-0.42-0.23-6.5-0.18-6.85c0.28-2.27,0.64-4.52,1.02-7.09
	c-0.51-0.31-1.41-0.86-2.48-1.52c1.1-0.81,1.92-1.42,2-1.48c-1.86-5.53-2.61-12.07-10.56-10.92
	C267.29,748.89,268.45,748.49,269.61,748.09z"/>
<path class="st3" d="M485.46,984.74c-39.65,0-79.3-0.31-118.94,0.12c-22.03,0.24-23.52-5.66-23.49-23.75
	c0.13-71.8,0.05-143.59,0.08-215.39c0-9.32-0.06-18.65,0.36-27.95c0.48-10.58,6.01-15.6,16.62-15.59
	c83.13,0.02,166.25,0.06,249.38,0.12c12.12,0.01,16.36,4.24,16.37,16.57c0.09,81.96,0.13,163.92,0.13,245.89
	c0,5.93,0.71,12.31-5.07,16.38c-2.06,1.45-4.63,2.92-7.01,3.01c-11.98,0.45-23.97,0.56-35.96,0.58
	c-30.82,0.06-61.64,0.02-92.46,0.02C485.46,984.76,485.46,984.75,485.46,984.74z M399.17,745.92c-3.11,0.19-6.77,0.32-10.41,0.7
	c-1.25,0.13-3.34,0.69-3.51,1.41c-1.03,4.34-2.22,8.79-2.25,13.21c-0.21,34.33-0.2,68.66-0.2,102.99c0,18.53,0.08,37.06,0.26,55.59
	c0.02,1.82,0.96,3.63,1.47,5.44c1.32-0.72,2.57-1.63,3.97-2.11c1.52-0.51,3.19-0.56,4.78-0.91c4.04-0.88,7.6-0.45,11.68-4.24
	c7.37-6.84,10.56-15.57,14.79-23.75c4.73-9.15,7.61-19.25,11.53-28.85c3.43-8.42,7.5-16.58,10.7-25.08
	c4.63-12.3,8.77-24.79,13.05-37.23c3.31-9.62,6.57-19.26,9.72-28.94c0.33-1.03-0.58-2.43-0.34-3.53c0.56-2.63,0.67-6.41,2.39-7.51
	c4.18-2.7,9.25-3.99,13.82-6.14c4.32-2.03,8.74-4.04,12.61-6.77c3.58-2.52,6.89-2.34,8.45,1.75c2.46,6.46,4.76,13,6.94,19.56
	c4.5,13.5,8.88,27.04,13.33,40.56c3.53,10.72,7.11,21.42,10.64,32.13c3.29,9.97,6.42,19.99,9.85,29.91
	c3.09,8.93,6.43,17.78,9.79,26.61c1.74,4.58,3.16,9.46,5.84,13.46c2.97,4.42,6.45,9.2,13.19,8.15c1.29-0.2,2.67,0.17,3.99,0.05
	c3.56-0.3,5.88,0.58,5.66,4.82c-0.03,0.65,1.12,1.62,1.94,1.99c0.56,0.25,1.47-0.28,2.64-0.56c-1.04-0.95-1.7-1.55-1.33-1.21
	c0-2.73-0.62-4.72,0.11-5.62c2.59-3.22,0.66-6.88,1.44-10.28c0.74-3.23,0.02-6.78,0.09-10.19c0.06-3.17,0.56-6.35,0.4-9.51
	c-0.17-3.41-1.29-6.81-1.22-10.2c0.09-4.56,1.55-9.16,1.23-13.66c-0.28-3.99,0.39-8.14-0.25-11.76c-1.09-6.19,0.64-12.26-0.62-18.38
	c-0.75-3.63,1.23-7.5-0.41-11.37c-0.59-1.4,0.24-3.4,0.4-5.13c0.31-3.24,0.92-6.5,0.8-9.73c-0.11-3.23-2.08-6.8-1.21-9.58
	c1.25-3.98,0.35-7.65,0.43-11.44c0.07-3.07-0.15-6.14-0.03-9.21c0.12-3.32,0.78-6.63,0.67-9.93c-0.12-3.57-0.56-7.2-1.4-10.67
	c-0.96-3.96,0.06-8.92-4.91-10.94c0.72-0.52,1.3-0.94,1.89-1.36c-0.03-0.41-0.07-0.81-0.1-1.22c-4.8-0.5-9.6-1.01-13.98-1.46
	c2.29-0.29,4.96-0.63,8.73-1.11c-5.92-2.87-181.51-2.78-186.36,0.07C393.71,745.25,396.75,745.62,399.17,745.92z M390.34,943.13
	c0.01,0.52,0.01,1.05,0.02,1.57c62.55,1.53,125.11,0.65,187.66,0.13c0-0.64,0.01-1.27,0.01-1.91c-23.22,0-46.44,0-69.67,0
	c24.7-1.57,49.43-0.68,74.1-1.7c0.02-0.65,0.05-1.31,0.07-1.96c-1.69-0.41-3.37-0.83-5.37-1.31c2.02-0.44,3.62-0.79,5.21-1.14
	c-0.06-0.62-0.12-1.25-0.18-1.87c-5.22,0-10.44,0.01-15.66,0c-21.49-0.05-42.97-0.06-64.46-0.27c-1.19-0.01-2.85-1.39-3.47-2.57
	c-2.47-4.72-0.09-9.05,5.03-9.89c2.53-0.41,5-1.16,8.1-1.89c-1.85-0.74-3.15-1.26-5.1-2.04c2.19-0.71,3.51-1.14,5.86-1.9
	c-2.24-0.88-3.48-1.37-5-1.98c1.48-0.74,2.65-1.32,4.37-2.18c-1.89-0.7-3.07-1.14-4.25-1.58c0.44-0.09,0.88-0.17,1.32-0.26
	c-0.42-2.62-0.76-5.26-1.27-7.87c-0.59-3.02-1.22-6.05-2.03-9.01c-0.78-2.84-1.66-5.68-2.79-8.39c-1.02-2.47-2.44-4.78-3.73-7.24
	c0.28-0.38,0.78-1.05,1.02-1.38c-2.61-1.95-4.6-4.3-7.08-5.1c-3.5-1.13-7.37-1.11-10.09-1.45c2.66-0.23,6.33-0.56,9.99-0.88
	c-0.04-0.55-0.08-1.11-0.11-1.66c-14.21-0.85-28.44-1.34-42.67,0.17c-1.11,0.12-2.48,1.38-3.04,2.46c-2.32,4.49-4.53,9.04-6.48,13.7
	c-3.67,8.76-6.7,17.76-7.09,27.34c-0.32,7.85,2.59,10.84,10.18,11.32c1.99,0.12,4.07,0.06,5.94,0.63c1.17,0.36,2.74,1.65,2.89,2.69
	c0.4,2.83,0.14,5.75,0.14,9.31c-19.7,0-38.35,0-56.99,0c-3.81,0-7.63,0-11.44,0c0.02,0.49,0.03,0.99,0.05,1.48
	c8.58,4.91,8.58,4.96,12.85,5c12.33,0.12,24.66,0.17,36.99,0.29c1.13,0.01,2.26,0.26,3.39,0.4c-0.04,0.32-0.09,0.65-0.13,0.97
	C421.71,943.13,406.02,943.13,390.34,943.13z M492.07,853.07c-0.93-3.67-1.73-6.09-2.1-8.58c-0.23-1.52,0.63-3.25,0.24-4.69
	c-1.13-4.19-2.66-8.27-4-12.4c-0.52-1.59-1.04-3.19-1.4-4.82c-0.69-3.12-0.11-6.75-3.62-8.68c4.15-2.39-1.79-2.73-1.14-4.86
	c0.21-0.68-2.81-2.35-4.07-3.34c0.81-0.24,2.12-0.61,3.87-1.12c-5.98-3.75-9.58-3.28-11.74,1.99c-4.51,10.99-8.58,22.17-12.65,33.33
	c-1.46,4-2.39,8.2-3.81,13.16C465.4,853.07,478.41,853.07,492.07,853.07z"/>
<g>
	<path class="st5" d="M930.24,843.07c0,41.32,0.02,82.64-0.01,123.96c-0.01,11.84-5.15,17.16-17.03,17.17
		c-82.31,0.09-164.62-0.05-246.92,0.28c-12.74,0.05-18.27-7.47-18.23-18.66c0.31-80.47,0.1-160.95,0.16-241.42
		c0-6.06-0.76-12.8,4.31-17.33c2.73-2.43,6.85-4.68,10.35-4.69c83.47-0.25,166.95-0.23,250.42-0.14
		c12.82,0.02,16.91,4.45,16.92,17.36c0.03,41.15,0.01,82.31,0.01,123.46C930.22,843.07,930.23,843.07,930.24,843.07z M883.65,744.81
		c0.03-0.49,0.06-0.98,0.09-1.48c-4.38-0.36-8.77-1.03-13.15-1.04c-56.32-0.09-112.65-0.18-168.97,0.12
		c-3.88,0.02-8.16,2.61-11.44,5.09c-1.79,1.36-2.06,4.94-2.66,7.6c-0.43,1.91-0.37,3.96-0.37,5.95
		c-0.05,26.19-0.11,52.38-0.09,78.57c0.02,30.28,0.02,60.56,0.22,90.84c0.06,9.55,4.95,14.82,14.41,14.79
		c57.99-0.2,115.98-0.27,173.97-0.02c8.12,0.04,14.68-7.25,14.53-14.53c-0.31-14.98-0.03-29.98,0.01-44.97
		c0.05-19.71,0.2-39.43,0.11-59.14c-0.1-23.17-0.43-46.33-0.61-69.5c-0.05-6.49-3.02-10.43-8.63-11.09
		c-0.24-0.03-0.46-0.23-0.77-0.4C881.49,745.33,882.57,745.07,883.65,744.81z M870.49,741c0.06-0.08,0.11-0.17,0.17-0.25
		c-56.66,0-113.32,0-169.98,0c0,0.08,0,0.17,0,0.25C757.28,741,813.88,741,870.49,741z"/>
	<path class="st5" d="M812.21,850.99c3.9,5.38,7.84,10.48,11.43,15.82c9.22,13.7,18.11,27.63,27.48,41.22
		c5.13,7.44,11.87,12.75,21.68,12.58c4.4-0.08,3.63,3.32,3.72,6.09c0.09,2.91-0.69,4.69-4.14,4.73c-13.47,0.15-27-0.22-40.38,0.95
		c-10.67,0.93-16.84-7.45-21.1-15.1c-4.06-7.3-8.21-14.55-12.17-21.9c-2.03-3.76-3.57-7.79-5.64-11.53
		c-2.36-4.26-4.78-8.54-7.71-12.42c-2.73-3.62-5.75-7.29-9.41-9.84c-2.8-1.95-6.77-2.26-10.27-3.07c-0.44-0.1-1.7,1.18-1.74,1.87
		c-0.55,9.37-1.24,18.74-1.31,28.12c-0.05,7.07,0.58,14.17,1.18,21.23c0.77,9.15,2.18,10.39,11.17,11.01c2.92,0.2,6-0.2,6.21,4.46
		c0.19,4.29-1.08,6.09-5.48,6.08c-20.3-0.04-40.6,0.09-60.9,0.13c-2.73,0.01-5.39,0.08-5.11-4.11c0.24-3.62-0.12-7.61,5.13-6.73
		c3.76,0.63,5.53-1.98,7.95-3.54c2.59-1.67,1.46-4.45,1.9-6.91c3.37-19.02,0.98-38.16,1.72-57.21c0.51-13.16,0.1-26.36-0.16-39.54
		c-0.12-6.53-0.93-13.04-1.18-19.58c-0.07-1.82,1.01-3.66,1.06-5.51c0.03-1.16-0.87-2.34-1.48-3.38c1.44-0.95,0.2-5.6-3.54-7.06
		c0.81-0.62,1.57-1.2,2.89-2.22c-2.34-0.8-3.99-1.36-5.76-1.96c1.02-0.28,1.93-0.54,3.28-0.91c-4.03-0.94-7.65-1.77-11.53-2.67
		c0-1.6,0.09-2.91-0.02-4.21c-0.33-4.1,1.46-5.47,5.58-5.44c21.98,0.14,43.97-0.04,65.96,0.04c7.97,0.03,16.21-0.71,23.86,0.98
		c18.54,4.1,34.2,13.24,40.94,32.17c4.51,12.67,1.69,25.18-6,36.18c-6.14,8.79-14.56,14.78-24.78,18.26
		C814.14,848.56,813.12,850.17,812.21,850.99z M787.47,773.02c0-0.31,0-0.63-0.01-0.94c-4.75-0.52-9.49-1.42-14.24-1.45
		c-4.46-0.03-7.67,2.68-7.86,7.24c-0.88,21.21-1.49,42.44-2.22,63.66c-0.11,3.29,1.82,4.2,4.68,4.46c14,1.28,25.12-3.25,32.85-15.48
		c6.73-10.65,8.98-21.96,5.43-34.05c-1.15-3.93-3.81-7.41-5.87-11.26c0.11-0.15,0.59-0.8,1.27-1.74c-2.21-0.62-3.9-1.09-5.58-1.56
		c0.32-0.65,0.63-1.3,0.95-1.95c-2.76-1.75-6.61-1.35-9.6-2.93c1.18-0.05,2.37-0.11,3.55-0.16c0.06-0.3,0.12-0.6,0.18-0.9
		c-2.22-0.74-4.45-1.48-6.72-2.24C785.38,773.48,786.42,773.25,787.47,773.02z"/>
</g>
<path class="st2" d="M1234.93,843.09c0,39.16,0,78.31,0,117.47c0,2.17,0.03,4.33-0.03,6.5c-0.33,12.07-4.86,16.77-17.07,17.27
	c-7.16,0.29-14.33,0.22-21.49,0.22c-71.31,0.01-142.63,0.01-213.94-0.01c-5.33,0-10.66-0.13-15.99-0.34
	c-6.9-0.27-11.95-4.44-13.2-11.3c-0.71-3.9-0.86-7.95-0.87-11.93c-0.05-76.81-0.05-153.63,0.01-230.44c0-5.15,0.21-10.35,0.89-15.45
	c1.14-8.5,6.3-12.93,14.88-12.94c83.64-0.04,167.29-0.05,250.93,0c11.25,0.01,15.75,4.68,15.78,16.48
	c0.09,41.49,0.04,82.98,0.04,124.47C1234.88,843.09,1234.9,843.09,1234.93,843.09z M1087.75,768.78
	c-8.26-1.69-15.59-1.18-22.64,1.98c-0.82,0.37-1.83,1.1-2.06,1.87c-1.24,4.24-2.69,8.48-3.24,12.83c-0.57,4.42-0.22,8.96-0.2,13.45
	c0.16,34.59,0.19,69.19,0.58,103.78c0.17,15.33,11.62,24.41,26.1,20.61c5.71-1.5,11.94-0.67,17.2-5.32
	c4.68-4.15,11.85-5.5,16.47-9.69c9.56-8.68,15.79-19.95,19.84-32.17c1.51-4.55,0.6-9.94,2.26-14.39c2.9-7.77,1.74-15.46,1.83-23.28
	c0.03-2.36-1.83-4.12-1.42-4.99c1.7-3.59-1.22-6.44-1.04-9.91c0.21-4.17-2.81-8.7-5.05-12.74c-2.51-4.53-6.89-8.33-8.31-13.09
	c-2.08-6.96-8.42-8.02-12.14-12.21c0.04-0.02,0.72-0.37,2.47-1.28c-4.16-1.09-7.42-1.94-9.93-2.6c0.6-0.13,2.07-0.47,3.54-0.8
	c0.05-0.47,0.09-0.93,0.14-1.4c-3.37-0.54-6.74-1.08-10.29-1.64c0.91-0.82,1.56-1.41,3.07-2.76c-5.46-0.51-9.84-0.92-14.23-1.34
	c1.93-0.2,3.87-0.39,5.8-0.59c0.05-0.45,0.11-0.89,0.16-1.34c-4.1-0.66-8.19-1.32-12.59-2.03
	C1085.19,769.44,1086.14,769.2,1087.75,768.78z M1185.57,743.86c-8.18-2.61-182.61-1.87-187.21,1.17c14.15,0,27.19,0,40.23,0
	c-11.83,0.97-23.66,0.89-35.49,1.01c-5.48,0.05-5.13,0.57-8.49,4.09c-2.87,3.01-1.37,6.34-1.98,9.49c-0.09,0.45,0.85,1.45,1.46,1.6
	c0.68,0.16,2.15-0.26,2.2-0.6c1-6.27,5.91-3.99,9.31-4.03c17.65-0.18,35.3-0.16,52.95-0.05c20.26,0.12,40.54-0.96,60.63,3.36
	c21.93,4.72,40.28,15,53.92,32.93c6.4,8.42,10.89,17.92,12.95,28.81c3.31-0.24,6.32-0.45,9.33-0.67c0.06-0.38,0.12-0.75,0.18-1.13
	c-1.03-0.68-2.07-1.36-2.19-1.44c0.7-1.45,1.76-2.61,1.7-3.7c-0.18-3.07-1.18-6.12-1.2-9.18c-0.03-6.41,0.49-12.82,0.53-19.23
	c0.03-4.22-1.1-8.56-0.39-12.62c0.72-4.12,1.04-7.87-0.39-11.82c-0.51-1.41-0.49-3.13-0.3-4.66c0.47-3.7,0.66-7.06-4.51-7.19
	c1.55-3.07,1.12-3.29-7.29-4.15C1182.59,745.33,1183.64,744.81,1185.57,743.86z M991.66,766.12c0,27.37,0,53.68,0,79.99
	c0,26.33,0,52.67,0,79.69c8.99-1.75,16.61-3.24,24.02-4.69c-0.26-1.69-0.7-2.72-0.51-3.62c0.96-4.63,2.35-9.19,3.03-13.86
	c0.28-1.93-1.88-5.12-1.09-5.9c3.11-3.11-1.52-7.1,1.63-9.83c-3.72-1.31,0.69-3.89-1.01-6.58c-1.68-2.65,0.91-7.9,1.33-12.04
	c0.12-1.21-0.77-2.52-1.2-3.78c1.02-3.99,1.26-8.28,1.37-12.56c0.1-4.11,0.2-8.23,0.07-12.33c-0.12-3.83-0.59-7.64-0.84-11.47
	c-0.25-3.8-1.51-7.99-0.34-11.31c1.32-3.77-0.56-7.29,0.91-11.02c1.16-2.93-1.21-6.42-0.72-10.01c0.46-3.37-0.52-6.95-0.95-10.42
	c-0.46-3.69-1.02-7.37-1.6-11.49c-1.89-0.35-3.99-0.74-5.93-1.1c1.38-0.37,2.84-0.77,4.31-1.16c-0.02-0.38-0.04-0.76-0.06-1.14
	c-3.2-0.6-6.39-1.2-10.12-1.9c1.46-0.27,2.32-0.43,3.28-0.6C1002.15,768.05,997.35,767.16,991.66,766.12z M995.54,939.88
	c2.64,1.64,4.87,3.74,7.47,4.44c3.15,0.85,6.61,0.65,9.94,0.65c53.66,0.11,107.32,0.22,160.98,0.22c5.54,0,11.55,1.23,15.91-3.82
	c1.53-1.77,3.82-3.58,4.1-5.6c0.87-6.25,1.08-12.6,1.28-18.93c0.16-5.31-0.1-10.63-0.11-15.95c-0.01-7.01,0.07-14.01,0.03-21.02
	c-0.01-1.58-0.35-3.15-0.59-4.72c-0.17-1.13-0.43-2.26-0.82-4.3c0.1,0.06-0.87-0.47-1.79-0.97c1.01-0.58,1.99-1.13,3.33-1.9
	c-5.32-2.32-8.79-2.22-9.46,0.05c-0.87,2.96-1.2,6.15-2.45,8.92c-2.86,6.34-5.62,12.84-9.39,18.64
	c-4.19,6.44-8.86,12.82-14.45,18.01c-5.59,5.19-12.2,9.64-19.06,12.99c-5.85,2.85-12.68,3.68-19.09,5.38
	c-1.08,0.29-2.2,0.45-4.16,0.84c1.81,0.4,2.79,0.61,3.77,0.83c-7.7,0.97-15.35,1.45-22.99,1.66c-11.64,0.32-23.29,0.71-34.93,0.61
	c-18.3-0.16-36.6-0.76-54.9-1.04c-4.88-0.07-9.77,0.33-14.65,0.52c0.02,0.44,0.03,0.89,0.05,1.33c1.7,0.28,3.41,0.56,5.92,0.98
	C997.78,938.66,996.74,939.23,995.54,939.88z M1195.26,824.68c-0.02-0.55-0.04-1.11-0.06-1.66c-2.85,0-5.7,0-8.55,0
	c0,0.55,0,1.11,0,1.66C1189.51,824.68,1192.39,824.68,1195.26,824.68z"/>
<g>
	<path class="st5" d="M1257.6,842.98c0-42.81-0.01-85.62,0.01-128.43c0-6.25,5.98-12.02,13.15-12.43c4.15-0.24,8.32,0.03,12.49,0.03
		c79.8,0,159.6-0.01,239.4-0.02c12.4,0,17.17,4.63,17.16,17.24c-0.02,73.13-0.13,146.26-0.18,219.4
		c-0.01,9.32,0.28,18.65,0.21,27.97c-0.09,13.02-4.99,17.83-17.85,17.84c-79.63,0.04-159.26,0.13-238.9,0.03
		c-6.35-0.01-12.95-0.46-18.98-2.24c-4.42-1.31-7.09-5.87-7.09-10.96c-0.04-42.81-0.02-85.62-0.02-128.42
		C1257.19,842.98,1257.4,842.98,1257.6,842.98z M1500.61,764.17c0.72-2.16-4.79-0.3-2.14-4.11c1.12-1.61-0.78-6.47-2.68-8.65
		c-1.23-1.41-1.87-2.54-1.97-4.11c-0.18-3.02-2.04-3.88-4.63-4.05c-4.31-0.28-8.62-0.82-12.93-0.83
		c-49.81-0.06-99.62-0.05-149.43-0.02c-6.49,0-12.99,0.04-19.47,0.38c-5.23,0.28-9.99,5.08-10.43,10.18
		c-0.4,4.61-0.85,9.23-0.84,13.85c0.15,54.75,0.38,109.49,0.61,164.24c0.03,7.23,3.93,12.14,11.08,13.4
		c4.51,0.8,9.16,1.11,13.75,1.12c52.81,0.15,105.61,0.3,158.42,0.08c4.77-0.02,9.79-2.1,14.18-4.26c2.34-1.15,2.41-6.02,3.57-7.35
		c2.89-3.29,2.12-7.23,2.32-10.03c0.27-3.73-0.7-7.68,0.39-11.65c0.42-1.51-0.33-3.33-0.51-5.02c-0.23-2.07-0.67-4.15-0.59-6.2
		c0.17-4.52,0.7-9.02,0.9-13.54c0.06-1.3,0.04-9.92-0.05-10.85c-0.24-2.38-0.76-4.72-1.17-7.08c0.15,0.02,0.29,0.04,0.44,0.07
		c0-2.64,0-5.28,0-8.58c-0.38,0.21,0.44-0.25,0.28-0.16c0-2.53,0.07-4.18-0.02-5.82c-0.1-1.71-0.36-3.4-0.56-5.1
		c0.06-0.04,0.11-0.08,0.17-0.11c0-2.73,0-5.46,0-8.76c-0.22,0.12,0.59-0.33,0.5-0.28c-0.53-6.78-2.36-13.12-1.12-18.78
		c1.32-6.01-0.68-12.16,1.43-18.61c-0.12-0.09-1.53-0.68-1.51-1.22c0.11-3.06,0.67-6.11,0.86-9.17c0.16-2.48,0.03-4.99,0.03-8.09
		c-0.33,0.19,0.46-0.27,0.11-0.07c0-3.95,0.72-7.13-0.19-9.74c-1.07-3.04-0.32-5.28,0.94-7.77c-0.73-0.55-1.45-1.09-2.19-1.65
		C1499.09,765.2,1499.85,764.68,1500.61,764.17z"/>
	<path class="st5" d="M1336.53,915.92c-1.22-0.72-2.17-1.28-3.21-1.89c0.91-0.58,2.47-1.08,2.52-1.7c0.25-3.32,0.12-6.66,0.12-10.63
		c1.39-0.81,2.94-2.26-0.2-3.16c0.23-1.37,0.42-2.51,0.61-3.65c-0.49-0.09-0.99-0.17-1.48-0.26c1.07-1.47,5.35-3.02-0.59-4.25
		c2.75-1.4,4.82-2.74,0.32-4.03c1.96-1.46,5.5-2.93,1.42-3.68c0-1.88,0-3.24,0-5.33c-0.42,0.22,0.41-0.21,1.71-0.89
		c-1.15-0.97-2.02-1.7-1.9-1.6c0.24-1.9,0.39-3.1,0.54-4.3c0.27-1.58,2.89-3.01-1.75-4.27c1.88-1.41,5.48-2.84-0.57-3.97
		c3.64-1.49,4.77-2.86,0.35-4.15c2.63-1.23,4.76-2.36,0.49-3.75c1.35-1.4,4.65-2.85-0.22-4.06c1.75-1.37,4.83-2.68-0.02-4.04
		c2.15-1.42,4.68-2.84-0.08-4.08c1.91-1.23,5.15-2.27,1.52-3.45c0-3.09,0-5.83,0-8.56c-0.12,0.05-0.25,0.11-0.37,0.16
		c0.25-1.25,0.5-2.5,0.75-3.75c0.7-1.74,2.62-3.19-0.39-3.99c0-1.86,0-3.27,0-5.23c1.96-0.73,2.11-2-1.26-3.2
		c3.9-3,2.81-25.45-1.26-28.43c0.72-0.37,1.44-0.74,2.57-1.32c-1.16-0.98-2.08-1.76-3.02-2.55c0.78-0.58,1.53-1.13,2.65-1.96
		c-1.62-0.81-2.89-1.45-4.16-2.09c1.12-0.45,2.25-0.89,3.38-1.33c0.04-0.37,0.09-0.74,0.13-1.12c-2.37-0.5-4.74-1.01-7.98-1.69
		c2.72-0.41,4.66-0.69,6.59-0.98c0.08-0.37,0.17-0.73,0.26-1.1c-1.98-0.63-3.97-1.27-5.83-1.86c0.65-0.17,1.56-0.42,2.47-0.66
		c0.04-0.25,0.08-0.5,0.12-0.75c-2.79-0.32-5.57-0.78-8.37-0.92c-4.99-0.25-5.99-1.76-5.88-8c0.08-4.68,2.42-6.16,6.66-5.66
		c26.15,3.04,52.41,2.3,78.63,2.12c15.72-0.11,31.43-1.13,47.14-1.53c5.69-0.14,7.43,2.04,8.56,7.46
		c1.63,7.88,3.93,15.61,5.63,23.47c1.05,4.83,3.93,9.55,1.11,14.79c-1.73,3.23-4.27,2.78-6.72,1.73c-3.15-1.36-6.09-3.21-8.27-4.38
		c0.15-0.04,1.65-0.43,3.08-0.81c-2.87-2.16-5.46-4.19-8.15-6.1c-2.57-1.82-5.24-3.5-7.96-5.3c-0.26,0.19,0.24-0.18,0.17-0.13
		c-1.91-2.03-3.59-4.5-5.89-6.09c-3.47-2.39-7.36-4.17-11.91-5.42c1.17-0.29,2.33-0.58,3.5-0.87c0.04-0.55,0.09-1.09,0.13-1.64
		c-4.73-0.44-9.47-0.88-14.29-1.33c1.63-0.17,3.22-0.34,4.81-0.51c-11.19-4.26-22.67-2.16-33.96-2.53
		c-1.45,17.66-2.44,34.81-2.06,52c0.1,4.28,0.3,8.58,0.82,12.82c0.13,1.07,1.71,1.96,2.62,2.94c0.19,0.2,0.34,0.43,0.52,0.64
		c-0.31,0.1-0.62,0.2-1.94,0.62c4.81,0,8.61,0,13.07,0c-1.12-0.24-1.59-0.34-2.05-0.44c-0.04-0.23-0.08-0.45-0.12-0.68
		c2.02-0.13,4.04-0.36,6.06-0.37c5.25-0.03,9.93-1.79,12.9-6.03c3.23-4.62,6.28-9.55,8.24-14.79c2.03-5.41,5.94-2.91,9.12-3.25
		c3.33-0.36,2.91,2.4,2.96,4.51c0.4,15.97,0.94,31.94,1.12,47.91c0.09,8.31-0.38,8.19-9.06,7.87c-0.94-0.03-2.09-1.2-2.69-2.13
		c-1.81-2.83-3.07-6.05-5.19-8.6c-1.06-1.28-3.51-1.41-5.28-2.05c0.79-0.2,1.84-0.47,2.88-0.74c0.05-0.32,0.1-0.64,0.15-0.96
		c-1.56-0.5-3.13-1.01-4.69-1.51c0.26-0.18,0.51-0.36,0.77-0.54c-0.56-0.82-0.93-2.06-1.7-2.39c-2.93-1.27-5.93-2.92-9.02-3.19
		c-5.63-0.51-11.34-0.14-18.48-0.14c1.92,0.87,2.46,1.11,1.96,0.88c-1.02,3.3-2.77,6.42-2.8,9.55c-0.09,10.25,0.35,20.51,0.77,30.76
		c0.29,7.22,0.54,14.47,1.4,21.64c0.81,6.71,5.96,10.86,12.69,10.94c7.5,0.09,15.1-0.74,22.47,0.23c8.35,1.1,15.39-2.46,22.04-5.66
		c5.47-2.63,9.34-8.59,13.94-13.06c5.87-5.69,11.66-11.47,17.74-16.93c0.8-0.72,3.79-0.39,4.54,0.49c1.56,1.85,3.46,4.58,3.14,6.62
		c-0.87,5.54-2.81,10.91-4.37,16.34c-1.66,5.8-3.84,11.5-4.89,17.41c-0.8,4.48-4.57,6.63-7.12,6.78c-12.57,0.74-25.2,0.52-37.8,0.48
		c-9.98-0.04-19.97-0.45-29.95-0.44c-12.99,0.01-25.98,0.33-38.96,0.42c-9.96,0.07-19.92,0.05-29.88-0.03
		c-4.8-0.04-6.34-1.95-6.65-6.8c-0.3-4.68,1.76-5.91,6.16-5.97c3.58-0.05,8.15,1.25,10.06-4.02
		C1332.57,916.9,1334.8,916.65,1336.53,915.92z M1435.43,933.33c0-0.19,0-0.37,0-0.56c-19.83,0-39.66,0-59.5,0c0,0.19,0,0.37,0,0.56
		C1395.77,933.33,1415.6,933.33,1435.43,933.33z"/>
</g>
<path class="st2" d="M1704.03,702.12c40.82,0,81.64-0.02,122.46,0.04c3.47,0,7.24-0.26,10.34,0.96c5.51,2.16,7.5,7.2,7.67,12.89
	c0.16,5.33,0.2,10.66,0.2,15.99c0.01,77.98,0,155.95-0.01,233.93c0,5.58-0.17,11.45-5.54,14.62c-3.42,2.01-7.63,3.35-11.59,3.63
	c-8.43,0.6-16.92,0.35-25.39,0.37c-15.8,0.03-31.6,0.01-47.4,0.01c-39.96,0-79.92,0.01-119.87,0c-17.79,0-35.58,0.06-53.37-0.14
	c-3.77-0.04-8.03-0.21-11.16-1.96c-3-1.68-5.71-5.15-6.91-8.43c-1.43-3.94-1.51-8.51-1.51-12.81c-0.09-74.81-0.1-149.62-0.03-224.43
	c0.01-7.65,0.52-15.31,0.95-22.96c0.33-5.8,5.48-11.13,11.2-11.41c5.98-0.3,11.98-0.3,17.98-0.3c37.32-0.02,74.64-0.01,111.97-0.01
	C1704.03,702.1,1704.03,702.11,1704.03,702.12z M1732.95,900.4c-5.57-6.47-11.08-12.86-16.7-19.38c0.1-0.18,0.47-0.81,0.12-0.2
	c-2.93-3.44-5.29-6.21-7.65-8.99c0.27-0.22,0.54-0.44,0.81-0.66c-1.73-0.38-3.46-0.76-6.38-1.41c1.75-0.83,2.59-1.23,2.94-1.39
	c-4.92-5.27-9.45-10.12-13.95-14.94c0.58-0.62,1.13-1.2,1.91-2.03c-2.22-0.39-3.85-0.67-4.69-0.82c-2.54-3.92-4.72-7.29-6.89-10.66
	c0.32-0.23,0.64-0.47,0.95-0.7c-1.74-0.41-3.48-0.82-5.5-1.29c0.81-0.86,1.33-1.41,1.82-1.94c-5.5-6.36-10.96-12.66-16.34-18.88
	c-1.62-1.47-3-2.74-4.46-4.07c0.17-0.24,0.64-0.92,1.29-1.86c-2.21-0.46-5.36-0.5-5.53-1.24c-1.56-6.69-5.92-2.27-8.89-3.22
	c-0.26,3.65-0.73,6.64-0.66,9.62c0.63,26.89,1.19,53.79,2.21,80.67c0.21,5.44,2.15,10.85,3.61,16.18c0.37,1.35,2.01,2.33,2.98,3.55
	c3.46,4.38,8.3,4.09,13.08,3.86c2.77-0.13,3.77,1.04,3.95,3.77c0.43,6.72-0.62,7.7-6.51,7.14c-5.61-0.53-11.31-0.28-16.96-0.31
	c-0.95-0.01-1.91,0.31-4.06,0.69c5.19,0.77,9.05,1.35,12.9,1.93c-0.03,0.16-0.05,0.32-0.08,0.48c-11.77,0-23.53,0-35.66,0
	c0.9-0.76,1.43-1.21,1.97-1.66c-0.11-0.28-0.22-0.56-0.34-0.83c-3.52,0.5-7.03,1-11.23,1.59c0-4.08,0-8.26,0-12.64
	c3.67-0.21,7.27-0.41,10.92-0.62c-0.26-1.16-0.71-2.68-0.59-2.73c6.46-2.5,5.8-9.35,7.27-14.01c2.13-6.76,1.46-14.44,1.69-21.74
	c0.17-5.43-0.48-10.9-0.13-16.31c0.48-7.16,2.15-14.27,2.3-21.43c0.32-14.67,0.18-29.36-0.22-44.02
	c-0.14-5.29-0.44-10.97-5.23-14.67c0.82-0.46,1.68-0.95,1.97-1.11c-2.93-4.06-5.62-7.79-8.21-11.37c0,0,0.97-0.37,1.06-0.41
	c-2.68-2.07-5.17-4.85-8.27-6.21c-7.85-3.43-12.07-0.52-12.07,8.21c0.04,52.52,0.17,105.03,0.37,157.55
	c0.03,7.33,5.78,12.69,13.45,12.69c58.66,0.05,117.32,0.1,175.98-0.14c3.24-0.01,6.79-2.14,9.54-4.16c1.28-0.94,0.95-4.01,1.46-6.09
	c0.13-0.53,0.93-0.9,1.02-1.42c0.41-2.41,0.67-4.84,1.09-8.11c-0.23,0.15,0.61-0.41,1.68-1.11c-1.31-0.64-2.14-1.04-1.68-0.82
	c0-3.27,0-5.72,0-8.16c0-2.28,0-4.55,0-6.83c0.48-0.08,0.95-0.15,1.43-0.23c-0.9-0.51-1.8-1.02-3-1.7c1.16-0.73,1.96-1.24,3.14-1.98
	c-0.72-0.56-1.81-1-1.82-1.47c-0.16-4.44-0.92-9.06,0.03-13.29c1.31-5.83-0.3-11.6,0.88-17.55c0.66-3.33,0.57-8.2-0.36-11.81
	c-0.59-2.27,0.86-3.03,0.71-4.49c-0.36-3.46-1.05-6.91-1.14-10.37c-0.12-4.62,0.37-9.25,0.29-13.88c-0.08-4.63-0.73-9.24-0.8-13.87
	c-0.08-5.01,0.13-10.02,0.4-15.02c0.13-2.31,0.7-4.59,1.1-7.11c-0.42-0.25-1.24-0.74-1.05-0.63c0-6.87,0-13.03,0-19.62
	c-0.15-0.1-0.96-0.63-0.71-0.47c0-4.27,0-7.74,0-11.08c-5.12,1.28-10.22,2.52-15.29,3.88c-0.46,0.12-0.88,0.98-1.04,1.58
	c-1.38,5.05-3.24,10.04-3.89,15.18c-0.92,7.23-1.01,14.57-1.31,21.86c-1.26,30.32-2.58,60.65-3.65,90.98
	c-0.37,10.43,0.17,20.9-0.23,31.33c-0.25,6.51-5.91,9.04-11.16,5.59c-5.09-3.36-10.86-5.72-14.66-10.89
	c-1.38-1.88-4.51-3.06-4.89-4.96c-0.74-3.67-4.22-4.36-5.84-6.96c-1.35-2.16-3.73-3.68-5.79-5.62c0.06-0.08,0.64-0.85,1.47-1.96
	c-2.14-0.47-3.72-0.81-6.68-1.46C1731.93,900.97,1732.47,900.67,1732.95,900.4z M1602.39,755.61c2-1.16,3.75-3.03,5.5-3.03
	c16.81-0.04,33.63,0.04,50.43,0.61c2.95,0.1,6.64,1.95,8.57,4.2c11.21,13.08,22.01,26.52,32.92,39.86
	c11.83,14.48,23.65,28.98,35.41,43.52c6.8,8.41,13.59,16.84,20.16,25.43c3.01,3.92,6.2,2.36,9.46,2.05c0.06-0.43,0.13-0.86,0.19-1.3
	c-1.86-0.31-3.73-0.62-5.59-0.93c0.03-0.24,0.07-0.48,0.1-0.72c1.89-0.26,3.79-0.53,6.18-0.86c-0.24-5.23-0.61-10.13-0.63-15.04
	c-0.01-3.29,1.94-7.96,0.43-9.55c-2.34-2.46,0.38-3.24,0.07-4.65c-0.46-2.06-1.54-4.07-1.59-6.11c-0.08-3.34,0.74-6.7,0.68-10.04
	c-0.12-6.19-0.5-12.37-0.97-18.54c-0.26-3.45-1.03-6.85-1.33-10.3c-0.28-3.13-0.27-6.15-1.81-9.19c-0.85-1.68-2.11-5.95-4.11-6.95
	c-0.39-0.2-0.85-0.25-1.7-0.49c2.01-0.84,2.95-1.23,5.06-2.11c-3.8-0.7-6.34-1.17-9.64-1.79c1.69-0.73,2.72-1.18,3.76-1.63
	c-2.79-1.24-5.53-1.44-8.23-1.85c-5.01-0.76-5.59-4.46-5.33-8.53c0.26-3.97,2.53-5.34,6.39-4.96c6.25,0.63,12.53,1.3,18.8,1.43
	c4.6,0.09,9.21-0.77,13.83-1.02c4.16-0.22,8.32-0.21,12.49-0.24c3.16-0.02,7.22-2.22,8.31,3.24c0.02,0.12,1.17,0.02,1.65,0.02
	c-0.28-1.73-0.52-3.26-0.85-5.28c-0.99-0.36-2.6-0.94-4.38-1.59c0.97-0.49,1.65-0.83,2.33-1.18c-0.01-0.45-0.03-0.9-0.04-1.34
	c-5.87-0.54-11.73-1.09-17.6-1.63c0-0.2,0.01-0.4,0.01-0.6c4.75,0,9.5,0,14.24,0c-20.58-4.27-41.31-2.2-61.96-2.6
	c-20.81-0.4-41.64-0.3-62.45-0.03c-20.67,0.26-41.4-1.19-62.78,1.41c1.46,1.1,2.13,1.61,3.07,2.32
	C1604.23,746.51,1602.9,748.04,1602.39,755.61z"/>
</svg>
